<svg xmlns="http://www.w3.org/2000/svg" xmlns:xlink="http://www.w3.org/1999/xlink" viewBox="0 0 301.81 348.39"><defs><style>.cls-1,.cls-10,.cls-11,.cls-12,.cls-13,.cls-14,.cls-15,.cls-16,.cls-17,.cls-18,.cls-19,.cls-2,.cls-20,.cls-21,.cls-22,.cls-23,.cls-24,.cls-25,.cls-26,.cls-27,.cls-28,.cls-29,.cls-3,.cls-30,.cls-31,.cls-32,.cls-33,.cls-34,.cls-35,.cls-36,.cls-37,.cls-38,.cls-39,.cls-4,.cls-5,.cls-6,.cls-7,.cls-8,.cls-9{fill-rule:evenodd;}.cls-1{fill:url(#linear-gradient);}.cls-2{fill:#ddbfab;}.cls-3{fill:#dde7fb;}.cls-4{fill:#f4f7ff;}.cls-5{fill:#f9d3b9;}.cls-6{fill:#dce3e5;opacity:0.47;}.cls-7{fill:#564943;}.cls-8{fill:#63544d;}.cls-9{fill:#334b5b;}.cls-10{fill:#5373a0;}.cls-11{fill:#252525;}.cls-12{fill:#e85324;}.cls-13{fill:#666;}.cls-14{fill:#333;}.cls-15{fill:url(#linear-gradient-2);}.cls-16{fill:#eae8ed;}.cls-17{fill:url(#linear-gradient-3);}.cls-18{fill:#303e48;}.cls-19{fill:#c2c3d0;}.cls-20{fill:#c4e7ff;}.cls-21{fill:#9ed8ff;}.cls-22{fill:#8abcdb;}.cls-23{fill:#60bfff;}.cls-24{fill:#03f4d0;}.cls-25{fill:#ffa92e;}.cls-26{fill:#c43914;}.cls-27{fill:#e29733;}.cls-28{fill:#f7ac34;}.cls-29{fill:#f4aa92;}.cls-30{fill:#e7bca9;}.cls-31{fill:#ffd6c4;}.cls-32{fill:#200b0a;}.cls-33{fill:#464646;}.cls-34{fill:#181a1b;}.cls-35{fill:#fff;}.cls-36{fill:#471908;}.cls-37{fill:url(#linear-gradient-4);}.cls-38{fill:#5282e3;}.cls-39{fill:#e8effd;}</style><linearGradient id="linear-gradient" x1="12842.86" y1="-4269.71" x2="12996.99" y2="-4269.71" gradientTransform="matrix(0.87, 0.5, 1, -0.58, -6807.71, -8661.76)" gradientUnits="userSpaceOnUse"><stop offset="0.2" stop-color="#fff" stop-opacity="0"/><stop offset="0.8" stop-color="#c4dff7"/></linearGradient><linearGradient id="linear-gradient-2" x1="6087.32" y1="3169.29" x2="6356.75" y2="3169.29" gradientTransform="matrix(-0.51, 0.86, 0.87, 0.5, 604.09, -6742.17)" gradientUnits="userSpaceOnUse"><stop offset="0.28" stop-color="#eae8ed"/><stop offset="0.47" stop-color="#c2c3d0"/></linearGradient><linearGradient id="linear-gradient-3" x1="6091.26" y1="3201.43" x2="6361.36" y2="3201.43" gradientTransform="matrix(-0.51, 0.86, 0.87, 0.5, 604.32, -6744.57)" gradientUnits="userSpaceOnUse"><stop offset="0" stop-color="#eae8ed"/><stop offset="0.16" stop-color="#fcfcfe"/></linearGradient><linearGradient id="linear-gradient-4" x1="5336.49" y1="-10340.05" x2="5443.44" y2="-10340.05" gradientTransform="matrix(0.33, -0.94, -0.87, -0.53, -10624, -236.41)" gradientUnits="userSpaceOnUse"><stop offset="0" stop-color="#e62a9b"/><stop offset="0.2" stop-color="#da6210"/><stop offset="0.8" stop-color="#ff9f65"/></linearGradient></defs><title>two-mans</title><g id="Слой_2" data-name="Слой 2"><g id="Layer_1" data-name="Layer 1"><path class="cls-1" d="M220.26,267c2.64,1.51,3.51,3.61,2.61,6.27s-3.35,5.12-7.27,7.37l-74.78,43.17A32.84,32.84,0,0,1,128,328q-6.94.8-10.9-1.49l-114.22-66C.3,259-.56,256.9.35,254.24s3.31-5.13,7.23-7.4l43.15-24.92c0,.59,0,1.19,0,1.8q0,3.6.36,8.72c.15,1.89.34,4.75.56,8.55a45.61,45.61,0,0,1-.33,6.21c-.14,1.41-.22,2.65-.25,3.72a28.11,28.11,0,0,0-6.68,2.76l-.17-.1c-4.12,2.47-6.8,8-6.8,8h-.26v1.94c.22,3.54,2.39,6.55,6.66,9,4.43,2.56,9.79,3.78,16.34,3.67v-.07a31.67,31.67,0,0,0,15.67-4.16c4.36-2.6,6.84-9.39,6.84-9.39h.49V262c-.11-2.81-1.57-5.3-4.37-7.45a41.36,41.36,0,0,0,7.37.51V255a34.61,34.61,0,0,0,16.61-4.18q6.8-3.94,7.11-9.27h-1.72v.11c0-3.42-2.14-6.32-6.3-8.72a28.68,28.68,0,0,0-13.36-3.6,20.38,20.38,0,0,0-.42-2.32,14.08,14.08,0,0,1-.53-4.49,103.81,103.81,0,0,0,.1-12.12c-.07-3.65,0-6.72.14-9.22a34,34,0,0,1,7.39-1.68q6.94-.8,10.87,1.49l11.11,6.65v110.4c.41,1.43.79,2.44,1.61,3l0,0,.24.13a.16.16,0,0,0,.13.07l5.27,3,0,0,.37.2a3.12,3.12,0,0,0,2.41,0,5.54,5.54,0,0,0,1.68-.69l82.35-47.76,3.1-1.75a10.74,10.74,0,0,0,2.74-2.31,15.67,15.67,0,0,0,1.13-1.76,11,11,0,0,0,1.42-3.74ZM63.94,230.89a79.07,79.07,0,0,1,.83-9.25,32.76,32.76,0,0,1,2.64-8.82c.08-.24.18-.56.3-1l2.13-1.23c0,.43,0,.88.08,1.34.11,1.21.24,2.48.4,3.8a51.13,51.13,0,0,1,0,9.18,22.37,22.37,0,0,0-.2,3.37v.2a6.64,6.64,0,0,0,1,3.3c0,.05,0,.09.1.13-.11.23-.2.45-.28.67-.39.2-.77.41-1.14.62l-.17-.1a14.93,14.93,0,0,0-5.85,5.67C63.85,235.36,63.89,232.72,63.94,230.89Zm-.14,18.73c.12-1,.22-2.18.29-3.42a11.25,11.25,0,0,0,3.29,4,33.5,33.5,0,0,0-3.57-.43C63.81,249.72,63.8,249.67,63.8,249.62Z"/><path class="cls-2" d="M60.15,93.49l-.33-1.36a4.25,4.25,0,0,1-1.32-.86l-.66-.86a5.09,5.09,0,0,0,1.42.7,6.37,6.37,0,0,0,1.41.16q.66.48,1.5,1l.72.43a9.41,9.41,0,0,0,4,2.94,14.67,14.67,0,0,0,1.78.71,22,22,0,0,0,6,1,27.49,27.49,0,0,1,.27,3.07,17.12,17.12,0,0,1,.1,1.84,10.71,10.71,0,0,1-.1,1.3l-3.67-2.41a19.09,19.09,0,0,0-4-1.82,23.54,23.54,0,0,1-5-1.61,3.49,3.49,0,0,1-2.08-3.67Zm71.52,8.68-.06.27c-1.38.55-2.81,1-4.3,1.47a6.57,6.57,0,0,1-1.39-3.36,4.35,4.35,0,0,1,.5-2.94l0-.28h.18a5.11,5.11,0,0,0,.6,2.57,3.17,3.17,0,0,0,2.94,2.25,2.65,2.65,0,0,1,.76,0c.24,0,.5,0,.79,0Z"/><path class="cls-3" d="M127.77,104.45q-13.36,7.3-25.1,7.1a47.5,47.5,0,0,1-13.84-2.18c-.19-1.13-.31-2-.36-2.51a10.09,10.09,0,0,1,.26-3.66,9.38,9.38,0,0,0,0-4.59,11.65,11.65,0,0,0-2.31-4.76c-.26-.31-.49-.6-.69-.86A9.69,9.69,0,0,0,80,90.88c-.71,0-1.39,0-2,0q.46,1,1,2.37,3.77,8.49,4.49,13.86a18.32,18.32,0,0,1,.17,2.36,7.61,7.61,0,0,1-.2,1.88,1.88,1.88,0,0,1-1.88,1.59,12,12,0,0,1-2.18-.59c-.66-.31-1.22-.59-1.69-.83a6.49,6.49,0,0,1-1.25-3.17,23.19,23.19,0,0,0-.6-4.66,7.88,7.88,0,0,0-1.25,1c.83-1,1.45-1.36,1.85-1a9.94,9.94,0,0,1,1,.86q1.35,1.26,4.59,4.36c-.12-.93-.29-1.88-.49-2.86q-.5-2.37-1.29-4.9c-.66-2.07-1.47-4.22-2.41-6.44a6.26,6.26,0,0,0-.53-1.22c.09-.69.15-1.22.2-1.59s.12-.74.16-1,.09-.81.13-1.21A18.86,18.86,0,0,1,90,94.87c.83.75,1.66,1.46,2.48,2.12q6.85,5.48,13.57,6.7,8,1.4,19.85-3.14a6.57,6.57,0,0,0,1.39,3.36Z"/><path class="cls-3" d="M58.71,146.93a20.11,20.11,0,0,0-.83-5.19c-.9-3-1.37-4.72-1.42-5.12a28.67,28.67,0,0,0-3.33-7.53A72.31,72.31,0,0,1,49.07,122c-.07.08-.13.13-.17.13a2.32,2.32,0,0,0,.17-.83c.52-3.34.79-5.06.79-5.15q0-6.6-4.92-8.32c.48-.33,1-.64,1.45-.93.26-.09,1-.44,2.15-1a35.5,35.5,0,0,1,4.59,7.53c.53,1.71,1.52,4.39,3,8s2.63,6.54,3.27,8.33a121.71,121.71,0,0,1,4.43,15.06Q65,150.47,65.58,155l-1.78-.73c-.58-.26-1.16-.56-1.75-.89-.16,0-.25-.08-.27-.17l-.1-.1a2.27,2.27,0,0,0-.43-.19l0-.14c-.13-.06-.2-.12-.2-.16a.31.31,0,0,1-.2-.13,3.73,3.73,0,0,1-1.91-2.38c0-.51-.07-1.33-.07-2.48A1.55,1.55,0,0,1,58.71,146.93Z"/><path class="cls-3" d="M75,113.63a4,4,0,0,1-3.73,2.28q-4.12,0-11.73-9.51c-1.36-1.76-2.63-3.45-3.8-5.05a8.49,8.49,0,0,1,.83-1.06A5.7,5.7,0,0,1,57,99q7.89,9.54,13.81,13.54a17.54,17.54,0,0,1,2.34-5.68s0,.13-.1.26a2.56,2.56,0,0,0,1.36,3.5,14,14,0,0,0,.82,2.45A4.26,4.26,0,0,0,75,113.63Z"/><path class="cls-4" d="M106.49,103.69q-6.7-1.23-13.57-6.7c-.83-.66-1.65-1.37-2.48-2.12a18.86,18.86,0,0,0-12.29-5.2v0a28.49,28.49,0,0,1,15,4.57,21.85,21.85,0,0,0,11.62,3.17q11-.22,22-.16l0,.11,0,.28a4.29,4.29,0,0,0-.5,2.94Q114.46,105.08,106.49,103.69Z"/><path class="cls-4" d="M73.15,106.1v.07a.66.66,0,0,0,0,.13.46.46,0,0,0-.13.2s-.08.08-.1.16a.23.23,0,0,0-.07.14l0,0a17.54,17.54,0,0,0-2.34,5.68q-5.92-4-13.81-13.54a6.86,6.86,0,0,1,.26-.76,13.42,13.42,0,0,1,2.71-3.7,2.28,2.28,0,0,1,.6-.43,3.48,3.48,0,0,0,2.08,3.67,23.17,23.17,0,0,0,5,1.61,19.09,19.09,0,0,1,4,1.82L75,103.59a10.71,10.71,0,0,0,.1-1.3,14.88,14.88,0,0,0-.1-1.84,29.44,29.44,0,0,0-.26-3.07c.94-.17,1.59-.9,1.94-2.18.12-.64.19-1.21.24-1.71a6.22,6.22,0,0,1,.52,1.22c1,2.22,1.75,4.37,2.42,6.44a48.75,48.75,0,0,1,1.28,4.9c.21,1,.37,1.93.5,2.86q-3.24-3.1-4.59-4.36a10.89,10.89,0,0,0-1-.86c-.39-.33-1,0-1.85,1A10.9,10.9,0,0,0,73.15,106.1Z"/><path class="cls-4" d="M23,115.67a6.62,6.62,0,0,0,4.87,3.81,3.74,3.74,0,0,0,.64.14,17.1,17.1,0,0,0,9.14-3.85q.21-.42,3.17-3.85a15.07,15.07,0,0,1,3.07-3.07,4,4,0,0,0,.75-.38,17,17,0,0,1,1.9-1.59q5.26,1.83,5.26,8.89c0,.1-.28,1.93-.85,5.51a2.4,2.4,0,0,1-.17.88,5.64,5.64,0,0,0-.6.6l-3.29,2.72c-.11,0-.18,0-.21.1a.25.25,0,0,0-.21.11.63.63,0,0,0-.39.28,42.84,42.84,0,0,1-4.3,3.18l-4.1,2.26a8,8,0,0,0-1.69.91,19.32,19.32,0,0,1-9.92,2.83,5.73,5.73,0,0,1-4.27-1.56A24,24,0,0,1,20,131.48c-.36-.45-.71-.93-1.06-1.45a11.34,11.34,0,0,0-.71-1.2A13.72,13.72,0,0,1,16.79,123c-.07-.19-.15-.43-.25-.74a1.42,1.42,0,0,0-.39-.49v-.11a9.3,9.3,0,0,1-.08-2.28,2.32,2.32,0,0,1,.47.27q1.88.91,3.85-.78c1.39-1.1,2-2.19,1.94-3.24l-.18-1.31v0A6.38,6.38,0,0,1,23,115.67Z"/><path class="cls-4" d="M63.8,144.75a121.71,121.71,0,0,0-4.43-15.06c-.64-1.79-1.73-4.56-3.27-8.33s-2.44-6.31-3-8a35.5,35.5,0,0,0-4.59-7.53,15.16,15.16,0,0,0,1.48-.76,25.48,25.48,0,0,0,5.68-3.7c1.17,1.6,2.44,3.29,3.8,5.05q7.6,9.51,11.73,9.51A4,4,0,0,0,75,113.63a4.26,4.26,0,0,1,.26-.59q.8,2.31,2,5.75a34.39,34.39,0,0,1,1.62,8.62,60.89,60.89,0,0,1,.2,9.54,49.59,49.59,0,0,0,.36,9.42,2.14,2.14,0,0,0,.76,1l1.12.69c1.9-2.25,2.62-4.29,2.18-6.14a40.66,40.66,0,0,1-.92-7.53q-.16-5.1-.33-7.63a54.66,54.66,0,0,0-1-7.53,22.39,22.39,0,0,0-2.91-6.87,8.07,8.07,0,0,1-.76-.83c.47.24,1,.52,1.69.83a12,12,0,0,0,2.18.59,1.88,1.88,0,0,0,1.88-1.59,7.61,7.61,0,0,0,.2-1.88,18.32,18.32,0,0,0-.17-2.36q-.72-5.37-4.49-13.86-.52-1.38-1-2.37c.66,0,1.34,0,2,0A9.69,9.69,0,0,1,85.73,93c.2.26.43.55.69.86a11.65,11.65,0,0,1,2.31,4.76,9.38,9.38,0,0,1,0,4.59,10.09,10.09,0,0,0-.26,3.66c0,.54.17,1.38.36,2.51q.26,1.44.66,3.54c.07.37.15.75.23,1.12.09.57.16,1.2.2,1.88l-.77,3.93v.2a33.77,33.77,0,0,1,1,12.35,32.39,32.39,0,0,0,0,8.26v.6a1.3,1.3,0,0,0-.66.92,32,32,0,0,0-.49,3.77,9.12,9.12,0,0,1-.93,3.7,2,2,0,0,1-.53.66,17.64,17.64,0,0,1-7,4.55,26.41,26.41,0,0,1-5.48,1.23l-1.09,0a22,22,0,0,1-6.38-.56c-.68-.16-1.35-.34-2-.56Q65.06,150.46,63.8,144.75Z"/><path class="cls-5" d="M57.16,87.54A2.78,2.78,0,0,1,57.59,85a2.81,2.81,0,0,1,.48-.12,1.09,1.09,0,0,0,0,.18,9.21,9.21,0,0,1,.07,1.08c-.51.08-.76.51-.76,1.3a3.12,3.12,0,0,0,.76,1.78,2.32,2.32,0,0,0,1.75,1.13,14.56,14.56,0,0,0,1.17.92,6.28,6.28,0,0,1-1.4-.16,5,5,0,0,1-1.42-.7A16.69,16.69,0,0,1,57.16,87.54Zm1.9-2.64a2,2,0,0,1,1.19.66,3.83,3.83,0,0,1,1,1.52,16.34,16.34,0,0,0,.89,2c.13.3.28.61.43.92a1.89,1.89,0,0,1,.1.36l1-.39a5.81,5.81,0,0,1-.23-3.31,12.13,12.13,0,0,1,.33-1.35l4.69-3.53a18.52,18.52,0,0,0,9.25-2,33.49,33.49,0,0,1,.49,9.76v0c0,.4-.08.8-.13,1.21s-.1.62-.16,1-.11.9-.2,1.59c0,.5-.12,1.07-.23,1.71-.36,1.28-1,2-2,2.18a21.84,21.84,0,0,1-6-1,14.82,14.82,0,0,1-1.79-.71,9.31,9.31,0,0,1-4-2.94,17.17,17.17,0,0,0,8.46,2.38,6.13,6.13,0,0,0,.89-.06,1.32,1.32,0,0,0,.43.19,5.33,5.33,0,0,0,1.45.14,3.22,3.22,0,0,0,2.08-.5,1.09,1.09,0,0,0,.33-.86c0-1.23-.78-1.64-2.34-1.22a5.65,5.65,0,0,0-2,.89c-4.5-.4-7.63-1.11-9.42-2.15a13,13,0,0,1-2.18-1.66.44.44,0,0,0,.14-.38,2.9,2.9,0,0,0-.45-1.64,2.43,2.43,0,0,0-1.5-1.53,3.32,3.32,0,0,0-.51-.14C59.05,85.83,59.05,85.41,59.06,84.9Zm-46,32.93a31.83,31.83,0,0,1-3.63-2,1,1,0,0,0-.3-.26v-8.3l-3.5-4.65a2.64,2.64,0,0,1,1.36-1c.66-.22,1.14-.16,1.45.2.95,1,2.3,2.32,4.06,4.06a14.33,14.33,0,0,0,4.3,3.14,1.81,1.81,0,0,0,.66-.67l-1.06-6.53c0-1.17.58-1.67,1.75-1.49a19.94,19.94,0,0,1,1.75,4.33.45.45,0,0,1,.13.36.44.44,0,0,1,.1.33,22.35,22.35,0,0,1,.63,2.48c.31,1.38.58,3.1.83,5.15a2.64,2.64,0,0,1-.17.33,1.62,1.62,0,0,0-.3.53,2.29,2.29,0,0,1-.1.23c-.36.83-.59,1.34-.69,1.52a6.49,6.49,0,0,1-4.25,2.86H16l-1.52.17C14.11,118.47,13.63,118.18,13.08,117.83ZM131.51,89.59c.55-.73,1.09-1.38,1.61-2a.4.4,0,0,1,.27-.26.52.52,0,0,1,.26-.27,22.07,22.07,0,0,1,3.47-3.1c1.15.35,1.47,1,1,2.11l-3.83,5.38a2.19,2.19,0,0,0,.26.93,15.52,15.52,0,0,0,5.25-1q3.54-1.18,5.45-1.85a1.21,1.21,0,0,1,1.39.43,2.69,2.69,0,0,1,.76,1.49l-5.15,2.67-3.67,7.43a.66.66,0,0,0-.36.14c-.77.08-2.14.14-4.1.16l-1.65.13-.94-.61c-.13-.08-.26-.16-.38-.25a6.37,6.37,0,0,1-2.58-4.06l0-.39q0-.33,0-1.92a1.47,1.47,0,0,0,0-.59c0-.18,0-.3,0-.37A48.89,48.89,0,0,1,131.51,89.59Z"/><path class="cls-2" d="M68,82.09,63.3,85.63l.13-.47L65.25,82A11.67,11.67,0,0,0,66,79.55H67.3c.59,0,1.09,0,1.48,0a22.46,22.46,0,0,0,2.88-.16,6.9,6.9,0,0,0,4.65-2.28,28.36,28.36,0,0,1,.93,3A18.31,18.31,0,0,1,68,82.09Zm-6.6,7.37a.44.44,0,0,1-.14.38.47.47,0,0,0-.1-.1v-.55a4.07,4.07,0,0,0-.21-1.37A2.9,2.9,0,0,1,61.39,89.46Zm-45.18,30a6.52,6.52,0,0,0-1.36-.76l1.53-.17h.07a6.51,6.51,0,0,0,4.25-2.86c.1-.18.33-.69.69-1.52a2.29,2.29,0,0,0,.1-.23,1.62,1.62,0,0,1,.3-.53A2.64,2.64,0,0,0,22,113a5.57,5.57,0,0,1,.09.92,3.32,3.32,0,0,1,.1.81v0l.17,1.22c.09,1-.52,2-1.82,3a3.12,3.12,0,0,1-3.6.73,2,2,0,0,0-.44-.25ZM126.85,96.39l.69-1a5.35,5.35,0,0,1,.47-.7c.13-.24.28-.5.46-.79,0,.07,0,.19,0,.37a1.47,1.47,0,0,1,0,.59q0,1.59,0,1.92l0,.39a6.37,6.37,0,0,0,2.58,4.06c.12.09.25.17.38.25l.94.61h-.79c-.29,0-.55,0-.79,0a2.65,2.65,0,0,0-.76,0,3.17,3.17,0,0,1-2.94-2.25,5.11,5.11,0,0,1-.6-2.57A2,2,0,0,1,126.85,96.39Z"/><path class="cls-6" d="M88.15,231.73v-1.08a6.89,6.89,0,0,0,0-2,29.48,29.48,0,0,1,13.51,3.6q6.3,3.6,6.47,8.72v.53h1.72q-.32,5.32-7.11,9.27A34.61,34.61,0,0,1,86.15,255v.07a41.36,41.36,0,0,1-7.37-.51c2.8,2.15,4.26,4.64,4.37,7.45v.54h-.49s-2.48,6.79-6.84,9.39a31.67,31.67,0,0,1-15.67,4.16v.07c-6.55.11-11.91-1.11-16.34-3.67-4.27-2.46-6.44-5.47-6.66-9v-.94h.25q.62-4.95,6.76-8.65l.16.1A28.23,28.23,0,0,1,51,251.24a22.72,22.72,0,0,0,.08,2.46,1.63,1.63,0,0,0,.76,1,5.8,5.8,0,0,0,1.25.5.64.64,0,0,0,.13.26q.39,2.22,1.15,6.34a61.16,61.16,0,0,0,1.51,6.64q.55,3.54,4.56,5a11.59,11.59,0,0,0,7.06.3A1.9,1.9,0,0,0,69,272a11.84,11.84,0,0,0-.19-2.51,20.57,20.57,0,0,0-2.6-8c-.85-1.68-1.51-2.92-2-3.74a9,9,0,0,0-.56-.95c-.52-1.1-.93-2-1.21-2.81a4.71,4.71,0,0,0,1.17-3.83,32.94,32.94,0,0,1,3.54.43,11.23,11.23,0,0,1-3.27-4c.12-1.72.2-3.64.23-5.76v-1.63A14.83,14.83,0,0,1,70,233.45l.16.1c.37-.22.75-.42,1.13-.63a5.22,5.22,0,0,0-.24,1.55,4,4,0,0,0,.82,2.22,12.79,12.79,0,0,0-.53,2.24,2.1,2.1,0,0,0,.92,1.95,12.76,12.76,0,0,0,4.53,1.55c2.1.2,3.69.32,4.76.37.09-.4.14-.68.17-.86a2.82,2.82,0,0,1,.55-.76,15.17,15.17,0,0,1,4,.59q1.22.38,3.9,1.29,2.4.85,3.81,1.26a18.36,18.36,0,0,0,4,.43l3.31-.2a2,2,0,0,0,1.61-2.35,4.58,4.58,0,0,0,0-.53,3.82,3.82,0,0,0-1-3.33,17.31,17.31,0,0,0-6.67-3.87,36,36,0,0,0-3.61-1.25c-.63-.24-1.24-.49-1.8-.73A10.7,10.7,0,0,1,88.15,231.73Z"/><path class="cls-6" d="M251.63,333a6.07,6.07,0,0,0,.17.73,3,3,0,0,0-.17.53,3.17,3.17,0,0,0,.2,1.35q2.25,2.78,7.57,3.53a32.39,32.39,0,0,0,5.68.47,34.69,34.69,0,0,1,5.68.49l.39,1.39a33.65,33.65,0,0,0,4.6.69,10.39,10.39,0,0,0,4.52-.62,1.7,1.7,0,0,0,1.12-1.72,11.07,11.07,0,0,0,1.52-.23,4.29,4.29,0,0,0,2.08-1.06,13.19,13.19,0,0,0,.24-2.21,2.61,2.61,0,0,0-.27-1.26,8.42,8.42,0,0,0,.07-1.88c0-.57-.07-1.09-.09-1.54l1.21-1.07h0l.49-1.46a30.77,30.77,0,0,0,1.19-5.12c.07-.46.15-.94.24-1.43.37.19.73.4,1.08.61q6.81,4,7,9.77v.6h-.83q-.33,5.85-7.54,10.14a35.5,35.5,0,0,1-17.63,4.62v.07q-10.47.17-17.79-4-7.11-4.12-7.21-10v-.82h.1c.47-3.75,3-7,7.56-9.85l.16.13a33.38,33.38,0,0,1,13.17-4.28c0,.68,0,1.36,0,2v.12l-.33-.05c-.26,0-.52-.08-.76-.1h.05c-.07-.26-.14-.25-.23,0h-.07l-1.19.37a2.57,2.57,0,0,1-.47.36v0c.08.05,0,.11,0,.2a2.89,2.89,0,0,0-.4,2.64l.07.14a4.25,4.25,0,0,0-.1.89,3.64,3.64,0,0,0,.56,1.88l.2.33c-.22.1-.43.19-.63.26a5.81,5.81,0,0,1-1.62.4l-6.37.76a3.43,3.43,0,0,0-2.61,1.19.29.29,0,0,0-.07.1,2.24,2.24,0,0,0-.39.73A2.42,2.42,0,0,0,251.63,333Z"/><path class="cls-7" d="M55,76.77c1.14.29,2.58.61,4.34,1a15.28,15.28,0,0,0-1,3.1c-1.23-.27-2.51-.61-3.83-1a13.15,13.15,0,0,1,.26-2.27C54.8,77.28,54.89,77,55,76.77ZM56.8,89.26A12.47,12.47,0,0,1,55.44,87a16.22,16.22,0,0,1-.89-2.71A15.65,15.65,0,0,1,54.14,81h0c.71.5,1.51,1,2.41,1.55l1.11.58c0,.26,0,.51,0,.77s0,.46.12,1a2.81,2.81,0,0,0-.48.12,2.81,2.81,0,0,0-.43,2.54A17.55,17.55,0,0,0,58,90.41l.66.86A13,13,0,0,1,56.8,89.26Zm2.45-7.94a15.38,15.38,0,0,1,1.85-3.08,22.7,22.7,0,0,0,2.3.15q13.14.14,13.38-4.39a2.24,2.24,0,0,1,.23.86A4.27,4.27,0,0,1,76.35,77a.18.18,0,0,0,0,.13,6.9,6.9,0,0,1-4.65,2.28,22.46,22.46,0,0,1-2.88.16c-.39,0-.89,0-1.48,0H66A11.67,11.67,0,0,1,65.25,82,33.17,33.17,0,0,1,59.25,81.32ZM63,86.71A5.9,5.9,0,0,0,63.2,90l-1,.39a1.36,1.36,0,0,0-.1-.36c-.15-.31-.3-.62-.43-.92a16.34,16.34,0,0,1-.89-2,3.72,3.72,0,0,0-1-1.52,2,2,0,0,0-1.19-.66c0-.43,0-.92,0-1.47l.39.18c.6.2,1.18.41,1.75.63a25.26,25.26,0,0,0,2.61.66l-.13.46A12.13,12.13,0,0,0,63,86.71ZM56.1,254.55h.13c.31.85.64.88,1,1h.9a12.46,12.46,0,0,0,2.21-.45,6.1,6.1,0,0,0,2.31-1.49c.29.77.69,1.71,1.22,2.81A14.06,14.06,0,0,1,61.35,258q-3.47,1.81-3.47,3.33,0,5.25,4.17,11a10.9,10.9,0,0,1-1.23-.36A7.38,7.38,0,0,1,56,268.14a61.21,61.21,0,0,1-1.52-6.63c-.51-2.76-.89-4.87-1.16-6.35.05,0,.11-.11-.14-.19v-.07C54.39,255.16,55.26,255.31,56.1,254.55Zm16.84-21.46a10.9,10.9,0,0,0,7.61,2.46h1.17a6.79,6.79,0,0,1,1.3-.22,11.12,11.12,0,0,0,3.53-1.53,10.86,10.86,0,0,0,1.6-1.64v.13a12.57,12.57,0,0,0,1.54.71l.16,1.16q0,1.31-3.27,3.76a23.39,23.39,0,0,0,4.9,2.24,22.61,22.61,0,0,0,7.57,1.39H102a4,4,0,0,1,0,.49,9,9,0,0,1-4.74,1.05,17.68,17.68,0,0,1-4.77-.83q-1.53-.47-4.68-1.54a19.14,19.14,0,0,0-4.8-1,24.11,24.11,0,0,0-2.67-.15c-1.25-.06-2.19-.13-2.8-.21a6.51,6.51,0,0,1-4.62-2.5,3.81,3.81,0,0,1-.77-2.06,4.76,4.76,0,0,1,.23-1.44c.08-.21.16-.41.26-.62Z"/><path class="cls-8" d="M61,74.79a19.14,19.14,0,0,0-1.67,3c-1.76-.37-3.2-.69-4.34-1-.09.24-.18.51-.27.8a11.8,11.8,0,0,1,1.95-3.94Q59.77,69.08,66,69a13,13,0,0,1,4.87.75Q64.69,69.34,61,74.79Zm-1.84,8.62a6.72,6.72,0,0,1,.58-2.36,33.23,33.23,0,0,0,6,.68L63.91,84.9a25.26,25.26,0,0,1-2.61-.66c-.57-.22-1.16-.43-1.75-.63l-.4-.18Zm-2.59-.89c-.9-.53-1.7-1-2.41-1.55V79.84c1.32.4,2.6.74,3.84,1a13.4,13.4,0,0,0-.32,2.25Zm19.56-9.84a3.58,3.58,0,0,1,.66,1q-.24,4.53-13.38,4.4A22.7,22.7,0,0,1,61.1,78a33.13,33.13,0,0,1,2.83-3.16Q68.77,70,72.2,70.25A12.3,12.3,0,0,1,76.12,72.68Zm-23,181.87v.06l-.19.2a.73.73,0,0,1-.14-.26Zm4.73,6.82q0-1.51,3.47-3.33a14.06,14.06,0,0,0,2.51-1.62,8.17,8.17,0,0,1,.56,1c.47.81,1.13,2.06,2,3.73a20.65,20.65,0,0,1,2.61,8,3.13,3.13,0,0,1-.37,2A2.19,2.19,0,0,1,67,272.24a10.19,10.19,0,0,1-3.8.33,9.91,9.91,0,0,1-1.15-.2Q57.88,266.63,57.88,261.37Zm42.28-19.82A24.42,24.42,0,0,1,92,240.06a25.39,25.39,0,0,1-5.26-2.41q3.51-2.64,3.51-4l-.17-1.25c.57.24,1.18.48,1.82.72a36.19,36.19,0,0,1,3.63,1.26,17.43,17.43,0,0,1,6.71,3.86,3.83,3.83,0,0,1,1,3.34Z"/><path class="cls-9" d="M74.15,157.27a109.21,109.21,0,0,1-3.75,27.67q-.53,2.16-4.36,13.81a90.71,90.71,0,0,0-3.7,13.91c-.14.88-.28,1.82-.41,2.8q-1.65,12.3-1.62,34.22c0,1.21-.16,3.7-.16,3.7v1.72a2.17,2.17,0,0,1-2-.55h-.9a1.5,1.5,0,0,1-1,1H56.1a5.52,5.52,0,0,0-2.61,0h-.33a3.9,3.9,0,0,0-1.25-1.15,1.6,1.6,0,0,1-.76-1,20,20,0,0,1-.09-2.46c0-1.07.11-2.31.25-3.72a45.61,45.61,0,0,0,.33-6.21c-.22-3.8-.41-6.66-.56-8.55q-.36-5.12-.36-8.72c0-.61,0-1.21,0-1.8a49.52,49.52,0,0,1,2.56-15.34,81.83,81.83,0,0,0,1.89-17.44q-.21-11.79.09-17.64a57.58,57.58,0,0,1,.47-13.57,41.66,41.66,0,0,1,3.1-10.31c0,1.15,0,2,.07,2.48a3.73,3.73,0,0,0,1.91,2.38.31.31,0,0,0,.2.13s.07.1.2.16l0,.14a2.27,2.27,0,0,1,.43.19l.1.1c0,.09.11.15.27.17.59.33,1.17.63,1.75.89l1.78.73c.66.22,1.33.4,2,.56a22.68,22.68,0,0,0,6.56.56Z"/><path class="cls-10" d="M284.23,323q.18-1,.36-2c.25-1.4.52-2.89.8-4.48.17-1.05.35-2.05.51-3q2.82-16.44,2.82-16.5a19.49,19.49,0,0,0-.43-3.83c-.37-1.72-.67-3.08-.89-4.1a56.89,56.89,0,0,1-1.32-12.25c0-.29.12-2.64.36-7.07s.4-6.78.4-7.07a21.67,21.67,0,0,0-.23-3.1h0a7.26,7.26,0,0,0,3.1-.5,5.77,5.77,0,0,0,2.15-1.45,12.51,12.51,0,0,0,1.57-2l-.58,2.46c-.22,1-.39,1.88-.5,2.54-.13,1-.52,3.39-1.18,7.14q-.76,4.52-1,7.16c0,.93-.19,3-.43,6.21.33,1.81.81,3.87,1.42,6.18s1,4,1.16,5a31.21,31.21,0,0,1,.33,4.06,18.19,18.19,0,0,1-.66,5.35q-.73,2.78-2,7.11L288.92,314c-.35,1.77-.73,3.38-1.12,4.86-.27,1.13-.5,2.22-.68,3.25-.1.49-.18,1-.25,1.44a30.08,30.08,0,0,1-1.22,5.12l-.5,1.45v0a2.29,2.29,0,0,1-.67,1.07,3.23,3.23,0,0,1-1.24.68c-.27.06-.53.12-.79.16C282.92,329.94,283.51,326.9,284.23,323Z"/><path class="cls-10" d="M283.09,261.55a3.64,3.64,0,0,1-.44.84,8.51,8.51,0,0,1-1.42,1.59,12.5,12.5,0,0,0,1.15-1.39c.21-.28.44-.63.7-1Z"/><path class="cls-10" d="M278.06,326.57q-1.06-8-1.06-9.48a40.59,40.59,0,0,1,.89-6.6,38.21,38.21,0,0,0,.93-6.9,7.92,7.92,0,0,0-.63-2c-.88-2.18-1.35-3.35-1.42-3.5a27,27,0,0,1-2-9.05c0-2,.25-5.23.73-9.68a94.44,94.44,0,0,0,.76-9.58c0-1.17-.05-2.31-.16-3.42a8,8,0,0,0,3.65-1.1,3.14,3.14,0,0,0-.48,1.52,97.37,97.37,0,0,1-.5,14.5,25.93,25.93,0,0,0,.66,11.82,40.61,40.61,0,0,1,2,9,25,25,0,0,1-.14,6.44c-.28,1.67-.52,4.13-.72,7.36a37.07,37.07,0,0,0,.26,6.88c.05,1.21.17,2.82.37,4.85a15.62,15.62,0,0,1-.29,4.76v0a3.62,3.62,0,0,1-1.75,2.18C278.72,331.53,278.35,328.85,278.06,326.57Z"/><path class="cls-10" d="M86.26,233a12.19,12.19,0,0,1-3.8,1.66,52.19,52.19,0,0,0,.84-5.29q.3-2.78.45-6.11-.6-19.81-.6-19.95V203q.1-5.81,3.24-16.33,3.4-10.87,3.4-18.53a57.08,57.08,0,0,0-1.55-11.43q-.85-4.06-1.19-6.37a2,2,0,0,0,.53-.66,9.46,9.46,0,0,0,.93-3.7,32,32,0,0,1,.49-3.77c.07-.29.14-.59.23-.92a7.73,7.73,0,0,1,.4,3.73c-.13,1.28-.2,2-.2,2.28a5.2,5.2,0,0,0,.4,2.21,73.94,73.94,0,0,1,4,20.25,53.84,53.84,0,0,1-1,9.71c-.27,1-1,4.17-2.15,9.48a29.31,29.31,0,0,1-3.07,9.44c-.11.85-.2,1.8-.27,2.84-.16,2.5-.21,5.57-.13,9.22a106.14,106.14,0,0,1-.1,12.12,14.08,14.08,0,0,0,.53,4.49,20.14,20.14,0,0,1,.41,2.32,6.88,6.88,0,0,1,0,1.94A11.44,11.44,0,0,1,86.26,233ZM70.15,205.52a10.46,10.46,0,0,0-1.25,3.28q-.39,1.5-.66,2.43c-.13.43-.23.78-.32,1a34.41,34.41,0,0,0-2.79,9.31,82.77,82.77,0,0,0-.87,9.77c-.06,1.93-.1,4.72-.11,8.35v.74q0,3.18-.23,5.77c-.08,1.24-.17,2.38-.29,3.42a.86.86,0,0,0,0,.16,4.7,4.7,0,0,1-1.17,3.84,6,6,0,0,1-2.32,1.48v-.46c0-1.29,0-2.55,0-3.79q0-22.5,1.66-35.12.2-1.51.42-2.88A91.26,91.26,0,0,1,66,198.58q3.93-12,4.47-14.17A104.7,104.7,0,0,0,74.15,156v-.12l1.1,0a27,27,0,0,0,5.54-1.23,35.09,35.09,0,0,1,.56,5.9q0,14.49-6.2,32.4-2.52,7.29-5,13.9Z"/><path class="cls-11" d="M69.21,271.65a1.89,1.89,0,0,1-1.55,1.78,11.64,11.64,0,0,1-7.1-.3q-4-1.45-4.59-5A7.38,7.38,0,0,0,60.82,272a10.9,10.9,0,0,0,1.23.36,9.91,9.91,0,0,0,1.15.2,10.19,10.19,0,0,0,3.8-.33,2.19,2.19,0,0,0,1.65-1.12,3.13,3.13,0,0,0,.37-2A11.8,11.8,0,0,1,69.21,271.65Zm195.25-86a1.15,1.15,0,0,1,.66-1.71l.79-.4c-.19.49-.45,1.07-.76,1.75v0l-.39,1Zm9.66-6h0v0h0l.48-.25c-.05.08-.12.17-.18.25a6,6,0,0,0-.43.49c-.15.2-.45.57-.89,1.12l-.1.07a1.75,1.75,0,0,1-.3.23.33.33,0,0,0-.16.13l.3-.62q.28-.58.57-1.08l.42-.19ZM279,187a2.85,2.85,0,0,0-1.85.39c-1,.53-1.69.91-2.15,1.13a2.15,2.15,0,0,1-.59.23l.06-.2.13-.3a9.08,9.08,0,0,1,.76-1.48l.07-.07a.13.13,0,0,1,0-.07l1.29-1.94q1.19-1.53,1.65-2.25a4.69,4.69,0,0,0,.79-2.61,3.87,3.87,0,0,0-.26-.83,1.56,1.56,0,0,0-.13-.26l0,0a2,2,0,0,0-.27-.17.64.64,0,0,0-.2,0h-.1v0a3,3,0,0,0,0-1.23l.18-.08.45-.21a1.84,1.84,0,0,1,.49-.18c.52-.11.92.14,1.19.74l.05.11.91,1.89,1.85,3.91a1.17,1.17,0,0,1-.63,1.72l-2,1-.06,0Zm-3.5-4.71a2.71,2.71,0,0,1-.66.37c.42-.42.75-.76,1-1s.38-.47.49-.62l1-1.26a8.14,8.14,0,0,1-1,1.59l-.43.53c-.08.11-.15.18-.19.23A.71.71,0,0,0,275.45,182.33ZM77,239.05c.66.08,1.66.16,3,.23a25,25,0,0,1,2.88.16,20.73,20.73,0,0,1,5.15,1q3.38,1.16,5,1.65a19,19,0,0,0,5.12.89,9.67,9.67,0,0,0,5.09-1.12,2,2,0,0,1-1.62,2.34l-3.34.2a18.53,18.53,0,0,1-4-.43c-.94-.26-2.22-.68-3.83-1.26-1.8-.61-3.11-1-3.93-1.28a14.88,14.88,0,0,0-4-.6,3.05,3.05,0,0,0-.56.76,8.59,8.59,0,0,1-.16.86c-1.08,0-2.68-.16-4.79-.36a13.07,13.07,0,0,1-4.56-1.55,2.1,2.1,0,0,1-.92-1.95,12.29,12.29,0,0,1,.52-2.25A7,7,0,0,0,77,239.05Z"/><path class="cls-12" d="M78,112.35a22.39,22.39,0,0,1,2.91,6.87,53.3,53.3,0,0,1,1,7.53q.16,2.53.33,7.63a40.56,40.56,0,0,0,.93,7.53c.44,1.85-.29,3.89-2.18,6.14-.49-.29-.86-.52-1.12-.69a2.14,2.14,0,0,1-.76-1A49.42,49.42,0,0,1,78.7,137a58.47,58.47,0,0,0-.2-9.54,33.89,33.89,0,0,0-1.61-8.62q-1.23-3.44-2-5.75a14,14,0,0,1-.82-2.45,2.55,2.55,0,0,1-1.36-3.5c0-.13.08-.22.1-.26l0,0a.23.23,0,0,1,.07-.14c0-.08,0-.14.1-.16a.46.46,0,0,1,.13-.2.66.66,0,0,1,0-.13v-.07a10.9,10.9,0,0,1,1-1.38,8.44,8.44,0,0,1,1.26-1,23.34,23.34,0,0,1,.59,4.66,6.5,6.5,0,0,0,1.26,3.17A7.07,7.07,0,0,0,78,112.35Zm70.51,30.42a6.76,6.76,0,0,1-2.35,2.47,2.08,2.08,0,0,1-2.28.2,2.19,2.19,0,0,1-1-2.11,6.53,6.53,0,0,1,1-3.24,6.41,6.41,0,0,1,2.28-2.41,2.34,2.34,0,0,1,2.35-.27,2.38,2.38,0,0,1,.92,2.15A6.5,6.5,0,0,1,148.52,142.77Z"/><path class="cls-9" d="M71.28,231.58l.37.33a11.79,11.79,0,0,0,8.17,2.64h1.26a6.84,6.84,0,0,1,1.38-.23A52.19,52.19,0,0,0,83.3,229q.3-2.78.45-6.11-.6-19.81-.6-19.95v-.38q.1-5.81,3.24-16.33,3.39-10.86,3.4-18.53a57.82,57.82,0,0,0-1.55-11.43c-.58-2.71-1-4.83-1.19-6.37a17.85,17.85,0,0,1-7,4.56,33.43,33.43,0,0,1,.56,5.84q0,14.37-6.13,32.11-2.52,7.23-5,13.77c.1,1.09.2,2.44.31,4,0,.42,0,.87.08,1.33.11,1.21.24,2.48.4,3.8a51.13,51.13,0,0,1,0,9.18,22.37,22.37,0,0,0-.2,3.37v.2a6.61,6.61,0,0,0,1,3.3C71.18,231.49,71.21,231.53,71.28,231.58Z"/><path class="cls-13" d="M58.74,81.07a6.85,6.85,0,0,0-.59,2.38v0c0,.55,0,1,0,1.48s0,.94,0,1.26a1.57,1.57,0,0,0-.48,0q0-.43-.06-1.08a1.1,1.1,0,0,1,0-.18c-.08-.56-.12-.89-.12-1s0-.53,0-.79a13.52,13.52,0,0,1,.32-2.26,14.85,14.85,0,0,1,1-3.12,19.39,19.39,0,0,1,1.68-3q3.74-5.49,10-5a14.83,14.83,0,0,1,1.71.22v.3l-.38,0q-3.45-.27-8.33,4.6A33.38,33.38,0,0,0,60.6,78,14.21,14.21,0,0,0,58.74,81.07Zm12.69,14A17.14,17.14,0,0,1,63,92.69l-.73-.43q-.84-.51-1.5-1c-.45-.32-.84-.63-1.18-.92a3.62,3.62,0,0,1-1.42-2.07V88.2c0-.26,0-.41.07-.43a1,1,0,0,0,.36-.06c.69.77,1.34,1.45,2,2a.47.47,0,0,1,.1.1,13,13,0,0,0,2.18,1.66c1.78,1,4.92,1.75,9.41,2.15l1.23.1.06.76a2.6,2.6,0,0,1-1.19.5A6.13,6.13,0,0,1,71.43,95.07Z"/><path class="cls-14" d="M74.6,92.76c1.56-.42,2.34,0,2.34,1.22a1.09,1.09,0,0,1-.33.86,3.22,3.22,0,0,1-2.08.5,5.33,5.33,0,0,1-1.45-.14,1.32,1.32,0,0,1-.43-.19,2.65,2.65,0,0,0,1.19-.5l-.07-.76-1.22-.1A5.65,5.65,0,0,1,74.6,92.76ZM58.91,87.71a1.06,1.06,0,0,1-.37.06s-.06.17.61.43v.08c-.63.58-.16,1.27.75,2.07a2.32,2.32,0,0,1-1.75-1.13,3.12,3.12,0,0,1-.76-1.78c0-.79.25-1.22.76-1.3a1.57,1.57,0,0,1,.48,0,3,3,0,0,1,.51.14,2.43,2.43,0,0,1,1.5,1.53,7.44,7.44,0,0,0,.51,1.37v.55A10.37,10.37,0,0,1,58.91,87.71Zm224,244.78c.26-.05.53-.1.79-.17a3.5,3.5,0,0,0,.76-.33,3,3,0,0,0,.48-.35c0,.45,0,1,.08,1.54a8.5,8.5,0,0,1-.06,1.88,5.31,5.31,0,0,1-.14.63l-.26.26a1.05,1.05,0,0,1-.27.24,4.34,4.34,0,0,1-1.45.62,10.46,10.46,0,0,1-1.63.28,2.53,2.53,0,0,1-.09.35v0a1.58,1.58,0,0,1-1,1.13,8.1,8.1,0,0,1-2.19.61,12.16,12.16,0,0,1-2.66.08c-.33,0-.7-.07-1.09-.13a19.19,19.19,0,0,1-2-.33l-1.82-.33a8.18,8.18,0,0,1-1.78-.27c-.95-.06-2-.12-3.14-.16l-2-.05c-1.4,0-2.53-.13-3.4-.23l-.74-.12c-.64-.09-1.25-.21-1.84-.34l-.34-.09c-.29-.08-.57-.16-.84-.26a10.45,10.45,0,0,1-3.75-2.15,2.62,2.62,0,0,1-.8-1.12,6.15,6.15,0,0,1-.16-.73,2.42,2.42,0,0,1,.13-1.15l2.11,0a70,70,0,0,0,12-.91c.36-.07.69-.15,1-.23l.48-.15a11.66,11.66,0,0,0,9.6,4.44,8.15,8.15,0,0,0,2-.26l.07,0,.13-.07a3.57,3.57,0,0,0,1.76-2.21h0A7,7,0,0,0,282.94,332.49Zm-20.35-7.34a2.89,2.89,0,0,1,.4-2.64.54.54,0,0,1,.16-.2v.07a1.06,1.06,0,0,0,.2.61,2.78,2.78,0,0,0,1.22.84,6.39,6.39,0,0,0,1.71.48c-.09,1-.22,2-.38,2.94l-1.72.74h0a9.13,9.13,0,0,1-1.5-2.7Z"/><path class="cls-15" d="M118.15,123.28a1.38,1.38,0,0,1-.48-1.52,6.36,6.36,0,0,1,.29-1.12,12.38,12.38,0,0,1,1.09-2.45,10.17,10.17,0,0,1,3.7-3.8l86.08-49.67a3.9,3.9,0,0,1,3.4-.6l-3.5,6,.82.46-81.28,46.93a10.32,10.32,0,0,0-3.7,3.87,16.63,16.63,0,0,0-1.42,5V315.74l-.76-.43-3.17,5.52a3.06,3.06,0,0,1-1.07-2.78V123.28Zm46.35-28.8a2.9,2.9,0,0,0,1.52-.37l12.62-7.33a1.07,1.07,0,0,0,.66-.89c0-.29-.24-.55-.66-.79a3.24,3.24,0,0,0-1.45-.43,3.33,3.33,0,0,0-1.56.39L163,92.33a1.19,1.19,0,0,0-.66.92,1.1,1.1,0,0,0,.66.83A3.11,3.11,0,0,0,164.5,94.48Zm-44.7,91.33c-.43-.26-.65.25-.65,1.52v40.06c0,1.31.23,2.1.68,2.35l1.61.94c.46.26.69-.26.71-1.55l0-40.09c0-1.27-.25-2-.68-2.29Z"/><path class="cls-10" d="M128.38,324a5.69,5.69,0,0,1-1.69.69,2.84,2.84,0,0,1-2-.29,3.39,3.39,0,0,1-1.56-3.21L123,126.92a9.58,9.58,0,0,1,1.52-5,11.15,11.15,0,0,1,3.67-3.87L213.9,68.27c1.45-.81,2.69-.94,3.7-.39a3.3,3.3,0,0,1,1.52,3,.75.75,0,0,0,0,.2l.14,194.28a8.75,8.75,0,0,1-.1,1.24,10.74,10.74,0,0,1-1.42,3.75,15.52,15.52,0,0,1-1.13,1.75,11.88,11.88,0,0,1-2.54,2.12l-3.31,1.95Zm34-230.76a1.19,1.19,0,0,1,.66-.92l12.61-7.27a3.33,3.33,0,0,1,1.56-.39,3.24,3.24,0,0,1,1.45.43c.42.24.64.5.66.79a1.07,1.07,0,0,1-.66.89L166,94.11a2.9,2.9,0,0,1-1.52.37,3.11,3.11,0,0,1-1.48-.4A1.1,1.1,0,0,1,162.36,93.25ZM209,81.36a5,5,0,0,0-.69,2.25A1.4,1.4,0,0,0,210.58,85a4.2,4.2,0,0,0,1.62-1.71,4,4,0,0,0,.66-2.22,1.4,1.4,0,0,0-2.31-1.35A5,5,0,0,0,209,81.36Zm9.19,7-93,53.65v73.73l1,60.41v28.44h-1v.16l23.92-13.8L202.46,260l14.33-8.25.36-.24,1-23.07V88.31Zm-48.83,15.08a2.63,2.63,0,0,0-.42,1.49.89.89,0,0,0,1.45.83L183,98.41a2.9,2.9,0,0,0,1.09-1.13,2.79,2.79,0,0,0,.39-1.48.94.94,0,0,0-.46-1c-.26-.2-.61-.17-1,.1l-12.59,7.33A3,3,0,0,0,169.32,103.39Zm34.32-18.26a2.82,2.82,0,0,0-.46,1.62,1.06,1.06,0,0,0,.46,1,1.11,1.11,0,0,0,1.13-.09,3.5,3.5,0,0,0,1.15-1.23,3.74,3.74,0,0,0,.5-1.65,1,1,0,0,0-1.65-.92A2.93,2.93,0,0,0,203.64,85.13Zm-82.49,103.7,0,40.53c0,1.3-.26,1.82-.72,1.56l-1.63-.94c-.46-.26-.69-1.06-.69-2.38V187.1q0-1.92.66-1.53l1.66,1C120.9,186.78,121.13,187.55,121.15,188.83Zm45,100.78v5c0,1.43.38,2.22,1.13,2.38.48.57,1.35.49,2.6-.23L185,288.06a6,6,0,0,0,3.2-5.54v-5c0-1.43-.37-2.25-1.12-2.44-.48-.51-1.35-.42-2.6.26l-15.08,8.71A6.14,6.14,0,0,0,166.15,289.61Z"/><path class="cls-16" d="M209.48,70.63l4.79-2.74a3.77,3.77,0,0,1,3.7-.43l-5.42-3.11-.1-.06-.3-.2v0l-3.5,6Z"/><path class="cls-17" d="M218.31,67.62a3.58,3.58,0,0,1,1.25,3.11l0,.3A3.3,3.3,0,0,0,218,68c-1-.55-2.25-.42-3.7.39L128.7,118.13A11,11,0,0,0,125,122a25,25,0,0,0-1.88,5V321.09s1,2.65,2,3.2a2.9,2.9,0,0,0,2,.3,3.12,3.12,0,0,1-2.41,0l-.37-.2,0,0c-.87-.53-.21-3.14-.21-3.14l-1-5.65V126.42a16.63,16.63,0,0,1,1.42-5,10.32,10.32,0,0,1,3.7-3.87l81.28-46.93,4.79-2.74a3.78,3.78,0,0,1,3.7-.43Zm-4,206.77-3.1,1.75,3.3-1.95a12.12,12.12,0,0,0,2.54-2.11A10.74,10.74,0,0,1,214.31,274.39Z"/><path class="cls-18" d="M126.15,141.68l92-53.08v0l-92,53.14Zm-1,162.86V276.1l1,1v27.47Z"/><path class="cls-19" d="M118.83,321.06l0,0,.24.13a.16.16,0,0,0,.13.07l5.27,3c-.87-.53-1.3-1.58-1.28-3.14l-.06-5.65-.83-.46Z"/><path class="cls-20" d="M200.81,199.33a118.25,118.25,0,0,0,5.84-16.87,59.1,59.1,0,0,0,1.69-18.37,13.48,13.48,0,0,0-3.22-8.22,35.54,35.54,0,0,0-6.13-5.64,7.72,7.72,0,0,0-2.78-1.36h0a7.16,7.16,0,0,0-4.4-1.64l-.07.05L181.55,168.8a20,20,0,0,0,3.48,5.67q4,4.74,3.19,8.48a57.41,57.41,0,0,1-5,12.5q-1.34,2.42-5.82,9.73l-13.71-7.92a4.54,4.54,0,0,0,.77-1.18,4.07,4.07,0,0,0,.33-2.65,12.58,12.58,0,0,1,.93-8.45,12.78,12.78,0,0,1,5.66-6.37,3.75,3.75,0,0,0,1.7-1.92,3.92,3.92,0,0,0,.29-2.65,2.34,2.34,0,0,0-1.29-1.69,2.45,2.45,0,0,0-2.25.09,20.71,20.71,0,0,0-9.22,10.28,21.12,21.12,0,0,0-1.86,11.69l-4.69-2.72a28.82,28.82,0,0,1,2.6-10.76,26.45,26.45,0,0,1,12-13.26,4,4,0,0,0,1.76-2.06,3.89,3.89,0,0,0,.27-2.51,2.35,2.35,0,0,0-3.65-1.63q-10.22,5.44-15.45,17.21a39.46,39.46,0,0,0-3,9.86L144.12,186a48.29,48.29,0,0,1,3.09-9.22q6.22-14,18.56-20.58a4,4,0,0,0,1.76-2,4.51,4.51,0,0,0,.3-2.65,2.33,2.33,0,0,0-1.33-1.69,2.49,2.49,0,0,0-2.22.13q-14.62,7.86-22.08,24.57a59.14,59.14,0,0,0-3.08,8.59l-13-7.5v-34l92-53.14V228.74L193,214.23A154.18,154.18,0,0,0,200.81,199.33Z"/><path class="cls-20" d="M126.15,199.18l12.37,7.15.13.22a2.42,2.42,0,0,0,1.41,2.34,2.39,2.39,0,0,0,2.35-.31h0l10.41,6-8.94,11.34-17.74-10.24Z"/><polygon class="cls-20" points="149.92 290.8 149.97 290.84 126.15 304.58 126.15 304.53 126.15 277.06 149.92 290.8"/><polygon class="cls-20" points="214.15 111.96 214.15 93.36 128.15 142.76 128.15 161.36 214.15 111.96"/><path class="cls-20" d="M169,240.52c1-.68,2-1.39,3-2.13a71.54,71.54,0,0,0,8.44-7.78l37.2,21L203,260.12Z"/><path class="cls-21" d="M138.52,206.33l-12.37-7.15V175.53L139.07,183A47,47,0,0,0,138.52,206.33Z"/><path class="cls-21" d="M143.79,206.74a4,4,0,0,0,.33-2.64,39.53,39.53,0,0,1-.23-18.23l4.45,2.56a32.27,32.27,0,0,0,.54,13.06,2.52,2.52,0,0,0,3.63,1.65,3.86,3.86,0,0,0,1.69-1.95,3.93,3.93,0,0,0,.33-2.61,24.87,24.87,0,0,1-.74-7l4.67,2.7a17.22,17.22,0,0,0,.39,2,2.37,2.37,0,0,0,1.39,1.82,2.26,2.26,0,0,0,2.18-.23,3.63,3.63,0,0,0,1-.74L177,205c-.3.47-.6,1-.91,1.47q-3.76,5.39-5.12,7a17.07,17.07,0,0,1-5.88,4.59q-1.56-1.08-4.06-2.87a9.31,9.31,0,0,0-3-1.51,8.49,8.49,0,0,0-3.46-1.57l-2,2.5-10.4-6A4,4,0,0,0,143.79,206.74Z"/><path class="cls-21" d="M141.3,229.24a12.39,12.39,0,0,0,2.31,6.07,42.88,42.88,0,0,0,5.45,5.78,7.78,7.78,0,0,0,3.73,2.2,7.84,7.84,0,0,0,6.38,1.57,24.15,24.15,0,0,0,7.2-2.58c.94-.56,1.87-1.15,2.8-1.76l33.94,19.58,0,0L150,290.84l0,0-23.77-13.74,0-1,0-60.41,17.74,10.24Z"/><path class="cls-21" d="M217.15,228.48l0,23.18-.36.23,0,0-36.8-21.25A100.47,100.47,0,0,0,192.13,214Z"/><path class="cls-22" d="M212.23,79.51a1.54,1.54,0,0,1,.63,1.52,4,4,0,0,1-.66,2.22A4.2,4.2,0,0,1,210.58,85a1.4,1.4,0,0,1-2.31-1.35,5.11,5.11,0,0,1,2.28-3.93A1.55,1.55,0,0,1,212.23,79.51Z"/><path class="cls-22" d="M206,83.84a1,1,0,0,1,.47,1,3.74,3.74,0,0,1-.5,1.65,3.5,3.5,0,0,1-1.15,1.23,1.11,1.11,0,0,1-1.13.09,1.06,1.06,0,0,1-.46-1,2.82,2.82,0,0,1,.46-1.62,2.93,2.93,0,0,1,1.13-1.22A1,1,0,0,1,206,83.84Z"/><path class="cls-22" d="M183,94.94c.41-.27.76-.3,1-.1a.94.94,0,0,1,.46,1,2.79,2.79,0,0,1-.39,1.48A2.9,2.9,0,0,1,183,98.41l-12.62,7.3a.89.89,0,0,1-1.45-.83,2.63,2.63,0,0,1,.42-1.49,3,3,0,0,1,1.06-1.12Z"/><path class="cls-22" d="M184.43,275.36c1.25-.68,2.12-.77,2.6-.26.75.19,1.12,1,1.12,2.44v5a6,6,0,0,1-3.2,5.54l-15.07,8.71c-1.25.72-2.12.8-2.6.23-.75-.16-1.13-.95-1.13-2.38v-5a6.14,6.14,0,0,1,3.2-5.54Z"/><path class="cls-10" d="M203.15,111.84V114l9-5.18v-2.18Zm9-12.13V97.56l-9,5.16v2.18Zm0,4.62v-2.17l-9,5.18v2.18ZM152,137.51a2.2,2.2,0,0,0,1,2.12,2.1,2.1,0,0,0,2.28-.2,6.72,6.72,0,0,0,2.35-2.48,6.46,6.46,0,0,0,.92-3.2,2.37,2.37,0,0,0-.92-2.15,2.34,2.34,0,0,0-2.35.27,6.33,6.33,0,0,0-2.28,2.41A6.53,6.53,0,0,0,152,137.51Zm-3.46-.1a2.34,2.34,0,0,0-2.35.27,6.41,6.41,0,0,0-2.28,2.41,6.53,6.53,0,0,0-1,3.24,2.19,2.19,0,0,0,1,2.11,2.08,2.08,0,0,0,2.28-.2,6.76,6.76,0,0,0,2.35-2.47,6.5,6.5,0,0,0,.92-3.21A2.38,2.38,0,0,0,148.52,137.41Zm-15,11.73a2.18,2.18,0,0,0,1,2.11,2.1,2.1,0,0,0,2.28-.19,6.77,6.77,0,0,0,2.34-2.48,6.41,6.41,0,0,0,.93-3.21,2,2,0,0,0-3.27-1.88,6.41,6.41,0,0,0-2.28,2.41A6.59,6.59,0,0,0,133.52,149.14Zm-5.37-6.38,86-49.4V112l-86,49.4Z"/><path class="cls-23" d="M203.15,107.34l9-5.18v2.17l-9,5.19Zm0-4.62,9-5.16v2.15l-9,5.19Zm9,6.11-9,5.18v-2.17l9-5.19Z"/><path class="cls-24" d="M152.94,134.28a6.53,6.53,0,0,0-1,3.23,2.2,2.2,0,0,0,1,2.12,2.1,2.1,0,0,0,2.28-.2,6.72,6.72,0,0,0,2.35-2.48,6.46,6.46,0,0,0,.92-3.2,2.37,2.37,0,0,0-.92-2.15,2.34,2.34,0,0,0-2.35.27A6.33,6.33,0,0,0,152.94,134.28Z"/><path class="cls-25" d="M134.48,145.9a6.59,6.59,0,0,0-1,3.24,2.18,2.18,0,0,0,1,2.11,2.1,2.1,0,0,0,2.28-.19,6.77,6.77,0,0,0,2.34-2.48,6.41,6.41,0,0,0,.93-3.21,2,2,0,0,0-3.27-1.88A6.41,6.41,0,0,0,134.48,145.9Z"/><path class="cls-26" d="M113.11,47.11l-5,2.84V47.48l2.93-1.67ZM95.61,69.34a2.47,2.47,0,0,1-.46-1.75V47.51a5.07,5.07,0,0,1,2.6-4.63l13.4-7.73v2.54L99.8,44.23a5.09,5.09,0,0,0-2.65,4.66V69.3a1.71,1.71,0,0,0,.54,1.37Zm30.54-19.62-18,10.3v-2.5l18-10.3Zm0-4.92-18,10.32v-2.5l18-10.31Zm-22,30.63a1.9,1.9,0,0,1-.54.07c-.71,0-1.17-.59-1.36-1.78q1.45-3.61,2.9-6.51v0l3-1.71a30.16,30.16,0,0,1-1.09,3.68,39.68,39.68,0,0,1-2.91,6.26ZM273.2,206q-1.06-4.29-7.23-4.31c.17-.18.36-.36.56-.54s.53-.52.79-.76l0,.06.43,0a2.1,2.1,0,0,1-.86.49,10.58,10.58,0,0,1,1.69,0,10.46,10.46,0,0,1,5.87,2.59,11.93,11.93,0,0,1,4.13,7.83,29,29,0,0,1,.17,6.64c-.09,1-.22,2-.4,3s-.38,1.94-.63,2.87a31.56,31.56,0,0,1-.89,3.12c-.3.89-.63,1.74-1,2.56-.57,1.37-.93,2.31-1.09,2.84a13.92,13.92,0,0,0-.49,3.8,18.41,18.41,0,0,0,.59,5q.24.83.69,2l.6,1.28a18.47,18.47,0,0,1,1.32,3.31,21.16,21.16,0,0,1,.56,5.18,1.88,1.88,0,0,1,0,.2c0,.31-.1,1-.23,2-.24,1.72-.52,3.29-.83,4.73a31.41,31.41,0,0,1-1.09,3.89,15.7,15.7,0,0,1-4.95-.1h0a2.88,2.88,0,0,1-.76-.06,1,1,0,0,0-.23,0c-.81-.15-1.78-.35-2.9-.59-.36-.09-.74-.18-1.16-.26a20.49,20.49,0,0,1-2-.66,14.25,14.25,0,0,1-4.32-2.61c-.18-.16-.35-.31-.5-.47l0,0-.23-.23a8.23,8.23,0,0,1-.66-.86,1,1,0,0,0-.17-.23,1.43,1.43,0,0,0-.16-.3,3.78,3.78,0,0,1-.25-.49,5.9,5.9,0,0,0-1.25-2.08v-.1c.65-.18.64-.37,1-.57v-.56a7.63,7.63,0,0,1-.23-3.5q.13-1.12.36-2.31c.4-1.94.75-4.08,1.06-6.44a3.29,3.29,0,0,1,.07-.36c.19-1.61.45-3.9.75-6.87l.83-7.07c0-.55.1-1.07.17-1.55q.42-3.67.56-5.49c0-.28,0-.59.06-.92,0-.75.06-1.55.07-2.41a14.77,14.77,0,0,0,6.11,1.22q4.4-.3,5.58-3.24a12.41,12.41,0,0,0,.66-8.52Zm16.19-17.63a7.76,7.76,0,0,1,1.05.2l.14,0h0a15.82,15.82,0,0,0-1.76.11Zm5.08,3.74a2.59,2.59,0,0,1,0,.48q0,3.87-6.05,6.41-7.14,3-19.42,1.5l-.87-.1q5.29-.32,7.31-.34,3.07-.1,4.26-.24a27.65,27.65,0,0,0,6.11-1.22,13.07,13.07,0,0,0,5.32-3.17,11.1,11.1,0,0,0,1.68-2.11,4.74,4.74,0,0,0,.73-2.55,1.56,1.56,0,0,0-.15-.52A3.25,3.25,0,0,1,294.47,192.06Z"/><path class="cls-12" d="M99.65,70.36c-.83.49-1.45.6-1.86.35a.12.12,0,0,0-.09,0l0,0a1.73,1.73,0,0,1-.53-1.36V48.59a5.08,5.08,0,0,1,2.65-4.65l11.35-6.54V44s-.46,1.47-.15,1.78v0l-2.86,1.67v2.41l4.92-2.82.09.07a.13.13,0,0,1,.1,0c.44.26,1.08.13,1.93-.39l21-12.05v11.5a4.83,4.83,0,0,1-2.59,4.47L112.09,63.12a15.35,15.35,0,0,1-1.31,5.53,33.48,33.48,0,0,1-6.09,7.59.52.52,0,0,1-.39-.33l-.17-.46a39.42,39.42,0,0,0,3-6.38,29.59,29.59,0,0,0,1.12-3.74l-3.06,1.74v.12Zm8.5-17.74v2.5l18-10.32V42.31Zm0,4.9V60l18-10.3v-2.5ZM234.23,208q.72-2.72,6.34-6.21,2-1.26,6.34-3.7,5.66-3.14,8.19-4.62c1.3-.89,2.46-1.65,3.47-2.28,0,.14,0,.27,0,.41,0,.36,0,.72,0,1.07a9,9,0,0,0,1,3.8,9.72,9.72,0,0,0-1,.63c-.84.62-1.86,1.45-3.07,2.51-1.5,1.32-2.4,2.09-2.71,2.31a34.51,34.51,0,0,0-2.68,2.43c2.61-.43,5.47-1,8.61-1.69l.77-.18a30.53,30.53,0,0,1,6.51-.84q6.16,0,7.23,4.31a13.53,13.53,0,0,1,.46,3.07,8.18,8.18,0,0,0-5.84.33,18.63,18.63,0,0,1-5.81,1.39l-1.26.1c-1.58.11-3.15.16-4.72.16l-4.74,0-1.37,0q-3,0-5.95.26a16.18,16.18,0,0,1-6.67-.92,4.42,4.42,0,0,1-1.32-.71,4.5,4.5,0,0,1-.66-.65,5.29,5.29,0,0,1-.83-1.35l-.28.36Zm42.67,51.75c.31-1.43.59-3,.83-4.72.13-1,.21-1.68.23-2a1.88,1.88,0,0,0,0-.19,21.19,21.19,0,0,0-.56-5.19,18.71,18.71,0,0,0-1.32-3.3c-.22-.47-.42-.89-.6-1.29q-.45-1.12-.69-1.95a18.41,18.41,0,0,1-.59-5,14,14,0,0,1,.49-3.8c.16-.52.52-1.47,1.09-2.84.36-.81.69-1.67,1-2.56a30.8,30.8,0,0,0,.89-3.12c.25-.92.46-1.88.63-2.87s.31-2,.4-3a29,29,0,0,0-.17-6.64,11.93,11.93,0,0,0-4.13-7.82,10.47,10.47,0,0,0-5.87-2.6,10.59,10.59,0,0,0-1.69,0,1.67,1.67,0,0,0,.64-.33l.67-.18.87.09q12.27,1.5,19.42-1.5,6-2.53,6.05-6.41a2.42,2.42,0,0,0,0-.47,3.25,3.25,0,0,0-1-1.87,2.11,2.11,0,0,0-1-1,3.55,3.55,0,0,0-1.88-.47l-.14,0a9.7,9.7,0,0,0-1.05-.2l.26-.2a14.14,14.14,0,0,1,2.31-1.05q8.85-.54,9.75,10.67c.06.94.1,2,.1,3a24.74,24.74,0,0,1-.6,5.29c-.13.57-.29,1.17-.46,1.78q-.69,2-2.81,6.51c-.35.7-.66,1.36-.92,2-.82,1.83-1.43,3.35-1.85,4.56,0,.17-.06.34-.1.49a48.78,48.78,0,0,0-1.32,9.32,31.37,31.37,0,0,0,.53,6.08c.19,1.25.46,2.66.79,4.22.35,1.79.6,3.42.76,4.89a25,25,0,0,1,.13,5.09l0,.33a6.15,6.15,0,0,1-.32.91,7.19,7.19,0,0,1-1.1,1.75c-.15.17-.3.34-.47.51a12.46,12.46,0,0,1-1.38,1.22,15.54,15.54,0,0,1-1.49,1.16l-1.32.86c-1.19.76-2.32,1.44-3.4,2-.86.47-1.69.88-2.48,1.24l-.88.41h0a26.56,26.56,0,0,1-7.27,2.1h0A32.13,32.13,0,0,0,276.9,259.75Z"/><path class="cls-27" d="M148,1.51a3.87,3.87,0,0,0-.48.26l-32.88,19a4.71,4.71,0,0,0-2.48,4.32v19.8a2,2,0,0,0,.43,1.31l.08.06-.09-.06-2-1.26h0a2.45,2.45,0,0,1-.45-1.72V23.77a4.71,4.71,0,0,1,2.48-4.32l32.88-19c.79-.45,1.37-.57,1.75-.38a.78.78,0,0,1,.29.15l1.77,1.18A1.59,1.59,0,0,0,148,1.51Zm-5.84,17.8-18,10.31v-2.5l18-10.31Zm0,4.91-18,10.3V32l18-10.3Zm-18-2.22,18-10.3v2.49l-18,10.3Zm133,108.31v2.49l-18-10.31V120Zm11,23.75V134a4.72,4.72,0,0,0-2.51-4.38l-33.42-19.33-.48-.22a1.63,1.63,0,0,0-1.36-.1l1.81-1.19a1,1,0,0,1,.29-.2,2.2,2.2,0,0,1,1.77.39l33.39,19.32a4.74,4.74,0,0,1,2.51,4.39v19.71a2.49,2.49,0,0,1-.45,1.74l-2.09,1.36A1.94,1.94,0,0,0,268.15,154.06Zm-9.9.33a30.56,30.56,0,0,1-1.1-3.64l3,1.71v0q1.46,2.87,2.91,6.51c-.2,1.19-.65,1.78-1.36,1.78a2,2,0,0,1-.55-.07v0A39.15,39.15,0,0,1,258.25,154.39Zm-19.1-26.79v-2.5l18,10.34v2.5Zm0,4.92V130l18,10.3v2.5Z"/><path class="cls-28" d="M113.6,46.87a2,2,0,0,1-.45-1.34V25.14a4.85,4.85,0,0,1,2.55-4.45L149.57,1.14a3.4,3.4,0,0,1,.49-.26,1.65,1.65,0,0,1,1.37-.1.78.78,0,0,1,.23.13,2.26,2.26,0,0,1,.49,1.73v20a4.83,4.83,0,0,1-2.58,4.44l-6.34,3.63a8.11,8.11,0,0,0,1.4,2.32,26,26,0,0,0,4.65,4.12q2.08,1.27-3.63-.91a18.68,18.68,0,0,1-4.48-2.49,12.16,12.16,0,0,1-1.24-1.08l-3.3,1.9-20.93,12q-1.28.78-1.92.39a.17.17,0,0,0-.1,0A.27.27,0,0,1,113.6,46.87Zm28.55-32.68V11.7l-18,10.3v2.49ZM124.15,32v2.5l18-10.3v-2.5Zm0-4.9v2.5l18-10.31v-2.5Zm115,95.37,18,10.31v-2.49l-18-10.32ZM261,161.19a.57.57,0,0,1-.4.3,32.6,32.6,0,0,1-6.08-7.6,15.17,15.17,0,0,1-1.31-5.49L231.75,136a4.84,4.84,0,0,1-2.6-4.47V111.39a2.3,2.3,0,0,1,.49-1.73,1.14,1.14,0,0,1,.23-.13,1.67,1.67,0,0,1,1.38.1c.15.06.31.14.49.23l33.86,19.58a4.81,4.81,0,0,1,2.55,4.45v20.69a1.91,1.91,0,0,1-.54,1.38.17.17,0,0,0-.1,0c-.4.26-1,.13-1.85-.38l-5.51-3.14v-.12l-3-1.74a29.78,29.78,0,0,0,1.11,3.71,40.26,40.26,0,0,0,3,6.41Zm-3.86-20.87-18-10.3v2.5l18,10.3Zm0-4.88-18-10.34v2.5l18,10.34Z"/><path class="cls-29" d="M259.64,280.65l-.49-1.44c0,.1.05.2.08.3C259.33,279.85,259.47,280.23,259.64,280.65Z"/><path class="cls-30" d="M288.13,190.49a.09.09,0,0,0,.05,0,1.28,1.28,0,0,1-.1-.17.64.64,0,0,0,0,.07Z"/><path class="cls-2" d="M288.46,190.82l-.15-.19a1.09,1.09,0,0,1-.13-.17.09.09,0,0,1-.05,0,1.11,1.11,0,0,1-.33,1.19,9.52,9.52,0,0,1-3.5,2.12,8.08,8.08,0,0,1-4,.46c-.42-.07-1.25-.18-2.51-.33a2.79,2.79,0,0,1-1.45-.73,2.64,2.64,0,0,1-.66-1l-.07.27a0,0,0,0,0,0,0l-.12.48a3.46,3.46,0,0,0-.05.71,2.74,2.74,0,0,0,1.39.66,8,8,0,0,0,2.34.2l2.65-.13a11.17,11.17,0,0,0,2.67-.47,9.6,9.6,0,0,0,2.28-.89,4.17,4.17,0,0,0,1.22-1c.22-.26.4-.46.53-.59a.8.8,0,0,0,.2-.4A1.17,1.17,0,0,0,288.46,190.82Z"/><path class="cls-31" d="M272.34,169.29a1.82,1.82,0,0,0,.15-.27c.05.32.1.6.15.85Zm23.88,82.77a1.33,1.33,0,0,1-.13.4l0,0a2.48,2.48,0,0,1-.45,0,5.44,5.44,0,0,0,.32-.91q0-.15,0-.33A1,1,0,0,1,296.22,252.06Zm-21-78.23c-.21-.3-.42-.58-.61-.84.35.36.58.61.71.76Zm-1,5.7v0h0S274.15,179.54,274.15,179.53Z"/><path class="cls-32" d="M281.21,337.09a10.61,10.61,0,0,0,1.64-.28,4.43,4.43,0,0,0,1.45-.62.87.87,0,0,0,.26-.24l.27-.26a5.07,5.07,0,0,0,.13-.63,2.61,2.61,0,0,1,.27,1.26,13.19,13.19,0,0,1-.24,2.21,4.29,4.29,0,0,1-2.08,1.06,11.07,11.07,0,0,1-1.52.23,11.67,11.67,0,0,1,0-2.28l-.23-.1A2.61,2.61,0,0,0,281.21,337.09Zm-17.95-9a3.64,3.64,0,0,1-.56-1.88,4.25,4.25,0,0,1,.1-.89,8.72,8.72,0,0,0,1.25,2.37l.27.33c-.31.16-.59.29-.86.4Z"/><path class="cls-33" d="M266,327.25c-.06.35-.13.7-.2,1l.16.3c.4.66.82,1.29,1.26,1.88l.05,0-.48.15c-.31.08-.64.16-1,.23a70.13,70.13,0,0,1-12,.91l-2.11,0a2.24,2.24,0,0,1,.39-.73.29.29,0,0,1,.07-.1,3.43,3.43,0,0,1,2.61-1.19l6.37-.76a5.81,5.81,0,0,0,1.62-.4c.2-.07.41-.16.63-.26s.55-.24.86-.4Zm-1.33-3.42a2.78,2.78,0,0,1-1.22-.84c-.13-.19-.2-.39-.34-.61v-.1a2.57,2.57,0,0,0,.47-.36l1.19-1.37h.07a3.42,3.42,0,0,0,.23,1h.33a.75.75,0,0,1,.76-.16l.33.05c0,1,0,1.94-.12,2.87A6.43,6.43,0,0,1,264.71,323.83Z"/><path class="cls-9" d="M267.15,321.32a2.58,2.58,0,0,1-.64-2c0-3.73-.19-7.47-.36-11.22V308l-.58-6.51a42.19,42.19,0,0,0-1.93-10,8,8,0,0,1-.31-.94c-.17-.48-.35-1-.53-1.44-1.12-2.89-2.17-5.73-3.16-8.5l-.49-1.44c-.24-.68-.48-1.37-.71-2a45.2,45.2,0,0,1-1.62-8.22,36.43,36.43,0,0,1,0-8.09,18.16,18.16,0,0,1,.37-3.11q.09-.56.18-1a3.78,3.78,0,0,0,.25.49,1.43,1.43,0,0,1,.16.3,1,1,0,0,1,.17.23,8.23,8.23,0,0,0,.66.86l.23.23,0,0c.15.16.32.31.5.47a14.25,14.25,0,0,0,4.32,2.61,14.13,14.13,0,0,0,1.13.89,17.69,17.69,0,0,0,8.48,3.4,13.72,13.72,0,0,0,2.75.11c.11,1.11.16,2.25.16,3.42a94.44,94.44,0,0,1-.76,9.58c-.48,4.45-.73,7.68-.73,9.68a27,27,0,0,0,2,9.05c.07.15.54,1.32,1.42,3.5a7.92,7.92,0,0,1,.63,2,38.21,38.21,0,0,1-.93,6.9,40.59,40.59,0,0,0-.89,6.6q0,1.52,1.06,9.48c.29,2.28.66,5,1.09,8l-.13.07-.07,0a8.17,8.17,0,0,1-2.05.26,11.63,11.63,0,0,1-9.59-4.44l-.05,0c-.44-.59-.86-1.22-1.26-1.88l-.16-.3c.07-.34.14-.69.2-1,.16-.94.29-1.92.37-2.94a5.85,5.85,0,0,1,.74-2.87Z"/><path class="cls-9" d="M280,265.07a9,9,0,0,0,1.26-1.09,8.11,8.11,0,0,0,1.42-1.58,4.11,4.11,0,0,0,.44-.84l.88-.42c.79-.36,1.62-.77,2.48-1.24a5.28,5.28,0,0,0,.62.05,20.46,20.46,0,0,1,.24,3.11c0,.28-.14,2.64-.4,7.07s-.36,6.78-.36,7.06a57,57,0,0,0,1.32,12.26c.22,1,.51,2.38.89,4.09a19.58,19.58,0,0,1,.43,3.84s-.94,5.54-2.83,16.49q-.24,1.45-.51,3c-.28,1.59-.54,3.08-.79,4.47-.13.7-.25,1.37-.36,2q-1.08,5.88-1.79,9.1a7,7,0,0,1-2-.1,15.62,15.62,0,0,0,.29-4.76c-.2-2-.32-3.64-.37-4.85a37.07,37.07,0,0,1-.26-6.88c.2-3.23.44-5.69.72-7.36a25,25,0,0,0,.14-6.44,40.61,40.61,0,0,0-2-9,25.93,25.93,0,0,1-.66-11.82,97.37,97.37,0,0,0,.5-14.5,3.14,3.14,0,0,1,.48-1.52Z"/><path class="cls-34" d="M251.82,333.71a3,3,0,0,0-.16.53,2.89,2.89,0,0,0,.2,1.35c1.49,1.85,4,3,7.56,3.53a32.58,32.58,0,0,0,5.68.47,34.58,34.58,0,0,1,5.68.49l.4,1.39a33.77,33.77,0,0,0,4.59.69,10.44,10.44,0,0,0,4.53-.62,1.72,1.72,0,0,0,1.12-1.72,10.9,10.9,0,0,1,0-2.28l-.24-.1v0a1.58,1.58,0,0,1-1,1.13,8.1,8.1,0,0,1-2.19.61,12.16,12.16,0,0,1-2.66.08c-.33,0-.7-.07-1.09-.13a19.19,19.19,0,0,1-2-.33l-1.82-.33a8.18,8.18,0,0,1-1.78-.27c-.95-.06-2-.12-3.14-.16l-2-.05c-1.4,0-2.53-.13-3.4-.23l-.74-.12c-.64-.09-1.25-.21-1.84-.34l-.34-.09c-.29-.08-.57-.16-.84-.26a10.45,10.45,0,0,1-3.75-2.15A2.62,2.62,0,0,1,251.82,333.71Z"/><path class="cls-9" d="M286.45,259.5c1.08-.59,2.21-1.27,3.4-2l1.32-.86a15.54,15.54,0,0,0,1.49-1.16,12.46,12.46,0,0,0,1.38-1.22c.17-.17.32-.34.47-.51a7.28,7.28,0,0,1-.6,1.83v0a12.51,12.51,0,0,1-1.57,2,5.77,5.77,0,0,1-2.15,1.45,7.06,7.06,0,0,1-3,.5h-.14C286.9,259.54,286.69,259.53,286.45,259.5Zm-20.68,3c.42.08.8.17,1.16.26,1.12.24,2.09.44,2.9.59a.66.66,0,0,1,.23,0l.76.13h0a17.87,17.87,0,0,0,4.95,0l.27,0a26.45,26.45,0,0,0,7-2.07c-.26.42-.49.76-.7,1a12.36,12.36,0,0,1-1.15,1.38A9,9,0,0,1,280,265l-.24.17a8,8,0,0,1-3.65,1.1,13.72,13.72,0,0,1-2.75-.11,17.69,17.69,0,0,1-8.48-3.4,12.34,12.34,0,0,1-1.13-.9A18.22,18.22,0,0,0,265.77,262.53Z"/><path class="cls-35" d="M290.15,188.55h0a16,16,0,0,0-1.77.11c-.3,0-.62.08-.94.14a.52.52,0,0,0,0,.11,7.68,7.68,0,0,1,1.9.56,2.46,2.46,0,0,1,.63.47.83.83,0,0,1,.19.46,1.82,1.82,0,0,1,0,.33v.1a.69.69,0,0,1,0,.2l0,0s0,0,0,.07a2.58,2.58,0,0,1-.3.69,5.53,5.53,0,0,1-.92,1.16,12.53,12.53,0,0,1-2.28,1.55,12.72,12.72,0,0,1-2.58,1.09,15.62,15.62,0,0,1-1.59.43,16.51,16.51,0,0,1-2.7.29l-1.49,0c-.9,0-1.81,0-2.71,0l-1.55,0a15.15,15.15,0,0,0-2.54.43v-.05l-.08,0a6.65,6.65,0,0,0-1.55.63c-.53.28-.94.52-1.22.69a6.33,6.33,0,0,0-1.69,2.12l0,.06.43,0,.44,0q5.31-.31,7.32-.34,3.07-.1,4.26-.24a27.65,27.65,0,0,0,6.11-1.22,13.07,13.07,0,0,0,5.32-3.17,11.1,11.1,0,0,0,1.68-2.11,4.74,4.74,0,0,0,.73-2.55A1.83,1.83,0,0,0,293,190a2.13,2.13,0,0,0-1-1A3.58,3.58,0,0,0,290.15,188.55Z"/><path class="cls-2" d="M279.54,187.78A11.22,11.22,0,0,1,275.8,191a12,12,0,0,1-.15,1.28,2.64,2.64,0,0,0,.66,1l.38-.43.28-.33q2.47-2.87,4.75-3.27l.12-.11.41-.38c.09-.09.13-.16.13-.2,0-.2-.39-.61-1.18-1.22a9.77,9.77,0,0,0-1-.73l-1.57.79a2.15,2.15,0,0,1,.82.33c.09,0,.14,0,.17.07A.07.07,0,0,1,279.54,187.78Z"/><path class="cls-2" d="M270.63,174.84a1.69,1.69,0,0,0,0-.3,14.16,14.16,0,0,1,1.16-4.43.38.38,0,0,0,.09-.13l.07-.1c.13-.22.25-.42.36-.59l.3.58a6.91,6.91,0,0,0,.17.74,5,5,0,0,0,1.15,1.72l.61.66c.19.26.4.54.61.84l-1.05.91a2.37,2.37,0,0,0-.63,1.32,10,10,0,0,0,0,1.55c-.29-.09-.65,0-1.09.38A8.37,8.37,0,0,1,270.63,174.84Zm-.7,5.35c-.64.77-1.1,1.15-1.38,1.15s-.38,0-.27,0l0-.07c-.2-.55.09-1.18.86-1.91a.7.7,0,0,1,.16-.13,3.74,3.74,0,0,1,1.32.16C270.42,179.6,270.2,179.88,269.93,180.19Zm4.16-1.22.06.33h0s0,0,0,0l-.26.11-.4.19h0q-.29.5-.57,1.08a3.81,3.81,0,0,1-.7.69q-.72-.19-.72-.6a.86.86,0,0,1,0-.16,3.29,3.29,0,0,1,1.41-2l.14-.12a3.58,3.58,0,0,1,.48-.29.82.82,0,0,1,.33-.09Zm.83,11.83-.12.06-2,.77-.18.06-.77.25-1,.33c-.31.11-.61.2-.92.28h-.09s0,0-.06,0a2,2,0,0,0-.71.37,3.39,3.39,0,0,1-1.24.52.78.78,0,0,0-.26-.46l-1.38-1.14-.31-.43a12.23,12.23,0,0,1-.64-2.14c-.29-1.11-.44-1.67-.46-1.69l0,0c0-.15.08-.31.14-.48a11.92,11.92,0,0,0,1,1.32,5.73,5.73,0,0,0,.8.66,8.65,8.65,0,0,0,4.65,1.32h.69a7.47,7.47,0,0,0,3.36-1.07l.66-.37a17.83,17.83,0,0,1,2.7-1.47H279a10.36,10.36,0,0,1-3.48,2.94Zm5.32-4.25a7.4,7.4,0,0,1,1.25.74,4.81,4.81,0,0,0,3.27.92l1.49-.26a1.19,1.19,0,0,0,.46,0q.82-.3,1.62-.66a.31.31,0,0,1,.1,0,1.86,1.86,0,0,0-.28,1.73v0c-.31,0-.31.07-.3.59h0a3.47,3.47,0,0,0,.25.74.64.64,0,0,0,0,.07l0,.13a1.11,1.11,0,0,1-.33,1.19,9.52,9.52,0,0,1-3.5,2.12,8.08,8.08,0,0,1-4,.46c-.42-.07-1.25-.18-2.51-.33a2.79,2.79,0,0,1-1.45-.73l.38-.43.28-.33q2.47-2.87,4.75-3.27l.12-.11.41-.38c.09-.09.13-.16.13-.2,0-.2-.39-.61-1.18-1.22a9.77,9.77,0,0,0-1-.73l.06,0Zm-2.81-6.1q-1.37,2.55-2.31,2.55a.56.56,0,0,1-.37-.1c0-.09,0-.14-.06-.14l0-.36a18.38,18.38,0,0,1,2-3.37c.31-.44.58-.81.82-1.09a3.53,3.53,0,0,1,.61-.59l0,0v.05c0,.08.05.15.07.22a3.09,3.09,0,0,1,0,1.22A17.56,17.56,0,0,1,277.43,180.45Zm-3.37,8.79a1.46,1.46,0,0,1-.3-.17s0-.11,0-.39a5.57,5.57,0,0,1,1.48-3.11,25.09,25.09,0,0,0,2.35-3.33,4.66,4.66,0,0,0,.43-1.69c.06-.77.12-1.31.16-1.62v-.1a.45.45,0,0,1,.2,0,1.91,1.91,0,0,1,.27.16l0,0a1.71,1.71,0,0,1,.13.27,4.57,4.57,0,0,1,.27.82,4.79,4.79,0,0,1-.8,2.61q-.47.74-1.65,2.25l-1.29,2a.09.09,0,0,0,0,.06l-.07.07a8.76,8.76,0,0,0-.76,1.49l-.13.29A4,4,0,0,1,274.06,189.24Zm1.78-7.33.43-.53a8.14,8.14,0,0,0,1-1.59l-1,1.26c-.11.15-.27.36-.49.62s-.57.61-1,1a2.71,2.71,0,0,0,.66-.37.71.71,0,0,1,.2-.19S275.76,182,275.84,181.91Z"/><path class="cls-36" d="M274.72,159.52c-.06.91-.09,1.61-.09,2.09a.31.31,0,0,1,0,.18.22.22,0,0,1-.14,0,2.52,2.52,0,0,1-1-.27h0l.15-2.12a4.18,4.18,0,0,1,.78-1.91s0,0,0,0h.06A7.68,7.68,0,0,1,274.72,159.52ZM279,159a1.72,1.72,0,0,0-.07,1.45,3.4,3.4,0,0,1-.92-.4,3.15,3.15,0,0,1-.3-.36c-.13-.18-.13-.21,0-.1l1.52-1.78.07,0A4.5,4.5,0,0,1,279,159Zm4.76,2.24a1.65,1.65,0,0,1-.8-.39,2.24,2.24,0,0,1-.56-.57l1.95.53a.71.71,0,0,0,.2,0l.79.19a1,1,0,0,1,.23.1A14.41,14.41,0,0,1,283.71,161.26Z"/><path class="cls-8" d="M274.52,161.65c.09,0,.14,0,.16,0s0-.08,0-.19c0-.53,0-1.3.1-2.32a8.84,8.84,0,0,0-.2-2.18,4.49,4.49,0,0,1,1.62,1s.48.5,1.45,1.42c-.13-.11-.13-.08,0,.1a2,2,0,0,0,.3.36,3.24,3.24,0,0,0,.92.4,1.69,1.69,0,0,1,.07-1.45,5,5,0,0,0,.3-1.16,9.23,9.23,0,0,1,1.78,1.29l1.32,1.16a2.09,2.09,0,0,0,.56.56,1.62,1.62,0,0,0,.79.39,14.46,14.46,0,0,0,1.82-.1.89.89,0,0,1,.27.17,5.77,5.77,0,0,1,.85.82,5.35,5.35,0,0,0,.8.83l1.12.69a3.45,3.45,0,0,1,1,.83c1.28,1.45,2.11,2.41,2.48,2.87a26.48,26.48,0,0,1,2.21,3.11,19.84,19.84,0,0,1,1.79,5.15,9.57,9.57,0,0,1,.06,3.45v-.08a8.19,8.19,0,0,1-4,.86h-.05a18.93,18.93,0,0,1-12-4.23c-.23-.18-.46-.37-.69-.58a28.63,28.63,0,0,1-4.36-4.87,8.47,8.47,0,0,1-1.06-2.79c-.19-.77-.36-1.68-.53-2.72a6.1,6.1,0,0,0-1.62-3.41l1.62.4A2.78,2.78,0,0,0,274.52,161.65Zm17,20.9h.4a12.29,12.29,0,0,0,3.24-.4,8.32,8.32,0,0,1-.5.76l-1.15.3a16.51,16.51,0,0,1-2.51.58,15.23,15.23,0,0,1-3.37.11,5,5,0,0,1-1.26-.36,15,15,0,0,1-5-2.94l-.36-.31-.91-1.89Q286.18,182.4,291.53,182.55Zm-12.68-5.27-.45.22-.25-.14v-.05a2.31,2.31,0,0,0-.52-.79c-.36-.22-.64-.13-.86.27l-.07.11a3.81,3.81,0,0,0-2.74.71,8,8,0,0,1,0-1.55,2.37,2.37,0,0,1,.63-1.32l1.15-1h0a16.51,16.51,0,0,0,2.68,2.67c.21.17.43.33.66.5l.26.18A1.84,1.84,0,0,0,278.85,177.28Z"/><path class="cls-7" d="M278.62,176.92l-.66-.5a16.51,16.51,0,0,1-2.68-2.67c-.13-.15-.36-.4-.71-.76l-.61-.66a5,5,0,0,1-1.15-1.72,6.91,6.91,0,0,1-.17-.74c-.05-.25-.1-.53-.15-.85,0-.13,0-.27-.05-.43a10.88,10.88,0,0,1-.1-2.08,3.07,3.07,0,0,0-.19-1.42c-.16-.46-.3-.86-.43-1.19a2.78,2.78,0,0,1-.14-1.28l.24-1.36a6.16,6.16,0,0,1,1.61,3.4c.17,1.05.34,2,.53,2.73a8.47,8.47,0,0,0,1.06,2.79,28.63,28.63,0,0,0,4.36,4.87c.23.2.46.4.69.58a17,17,0,0,0,12,3.92h.05a5.92,5.92,0,0,0,4-.55v.08a.32.32,0,0,0-.06.15l-.46,1.58a.91.91,0,0,1-.07.14.09.09,0,0,1,0,.06,6.44,6.44,0,0,1-.33.63.11.11,0,0,0,0,.07,4.52,4.52,0,0,1-3.24-.16h-.4c-3.56.45-7.37-.93-11.41-3.59l-.05-.12a1,1,0,0,0-1.19-.74Zm3.63,8.61a1.17,1.17,0,0,0,.63-1.72L281,179.89s0,0,0,0a15.12,15.12,0,0,0,5.34,3.26,6,6,0,0,0,1.26.36,14.66,14.66,0,0,0,3.37-.12,16.47,16.47,0,0,0,2.51-.57l1.15-.3a10.6,10.6,0,0,1-4.33,3.8l-1.91.94-.1.05q-.79.36-1.62.66a1.19,1.19,0,0,1-.46,0l-1.49.27a4.82,4.82,0,0,1-3.27-.93,14.74,14.74,0,0,0-1.25-.79h0Zm-8-6.56-.26-.8a1,1,0,0,0-.53-.56,3.81,3.81,0,0,1,2.74-.71,17.53,17.53,0,0,1-1.4,2.15l-.48.25C274.34,179.19,274.31,179.08,274.29,179Zm3.4-1.61.25.14-.18.08C277.74,177.51,277.72,177.44,277.69,177.36Z"/><path class="cls-5" d="M274.25,177.89a1,1,0,0,0-.54-.56,1.32,1.32,0,0,0-1.13.38,6,6,0,0,0-.48.44l-.89,1.13a1.87,1.87,0,0,0-.51-.2c-.19.24-.41.52-.69.82-.66.77-1.14,1.16-1.44,1.16s-.38,0-.27,0l0-.07c-.21-.55.09-1.19.89-1.92l.17-.13a3.75,3.75,0,0,0-.82.1,5.07,5.07,0,0,0-.93.93,3.55,3.55,0,0,1-.37.49,1.41,1.41,0,0,1-.21.23,5.86,5.86,0,0,0-.68,1.56c-.09.22-.21.51-.34.89a.3.3,0,0,0,0,.1c-.2.49-.47,1.07-.79,1.75V185c-.15.34-.28.67-.4,1s-.33.79-.44,1.13a11.94,11.94,0,0,0,1.15,1.43,5.58,5.58,0,0,0,.88.71,9.84,9.84,0,0,0,5.14,1.43h.77a8.38,8.38,0,0,0,3.71-1.16c.24-.12.48-.25.73-.4a21,21,0,0,1,3-1.59h.17a.13.13,0,0,0,0-.07.19.19,0,0,0-.17-.06,2.14,2.14,0,0,0-.85-.34,3.07,3.07,0,0,0-1.9.4c-1,.53-1.74.91-2.21,1.13a1.88,1.88,0,0,1-.61.23c0-.06,0-.13.07-.2a4,4,0,0,1-.27.37,1,1,0,0,1-.31-.17s0-.11,0-.39a5.55,5.55,0,0,1,1.52-3.13,25.11,25.11,0,0,0,2.41-3.35,4.33,4.33,0,0,0,.44-1.69c.07-.78.13-1.32.17-1.63v-.1h0v0a17.89,17.89,0,0,1-.85,1.65c-.94,1.69-1.73,2.54-2.4,2.54a.51.51,0,0,1-.37-.1c0-.09,0-.13-.07-.13l0-.36a18.16,18.16,0,0,1,2.09-3.37,12.66,12.66,0,0,1,.86-1.09,3.29,3.29,0,0,1,.63-.6l.05,0a2.18,2.18,0,0,0-.55-.79.58.58,0,0,0-.89.26l-.06.12a16.21,16.21,0,0,1-1.46,2.14,2.35,2.35,0,0,1-.19.25,6.2,6.2,0,0,0-.44.5l-.92,1.12-.11.07a3,3,0,0,1-.31.23.34.34,0,0,0-.17.13c.12-.22.22-.43.31-.63a4.18,4.18,0,0,1-.72.7c-.5-.14-.75-.33-.75-.6a.78.78,0,0,1,0-.16,3.34,3.34,0,0,1,1.45-2l.16-.11a3.61,3.61,0,0,1,.49-.3A1.08,1.08,0,0,1,274.25,177.89Z"/><path class="cls-37" d="M180.41,230.61A101,101,0,0,0,192.63,214a155.5,155.5,0,0,0,7.74-14.85,118.25,118.25,0,0,0,5.82-16.81,58.94,58.94,0,0,0,1.68-18.3,13.49,13.49,0,0,0-3.2-8.19,35.7,35.7,0,0,0-6.11-5.62,7.69,7.69,0,0,0-2.78-1.35,6.68,6.68,0,0,0-1.09-.17,2.38,2.38,0,0,0-.46,0l-10.14,21.43a19.5,19.5,0,0,0,3.47,5.65q4,4.72,3.17,8.46a57.15,57.15,0,0,1-5,12.45q-1.34,2.43-5.91,9.86l-.79,1.3q-3.76,5.38-5.12,7a16.58,16.58,0,0,1-6.31,4.76,23.34,23.34,0,0,1-2.48-1.62q-1.56-1.08-4.06-2.87a9.31,9.31,0,0,0-3-1.51l-.56-.11L144,230.69a12.54,12.54,0,0,0,2.32,6.08,43.49,43.49,0,0,0,5.45,5.78,8.06,8.06,0,0,0,.82.74,7.84,7.84,0,0,0,6.38,1.57,24.15,24.15,0,0,0,7.2-2.58c.94-.56,1.87-1.15,2.8-1.76s2-1.39,3-2.13A71.54,71.54,0,0,0,180.41,230.61Z"/><path class="cls-38" d="M182.83,195.31a56.46,56.46,0,0,0,5-12.45q.83-3.74-3.17-8.45a19.86,19.86,0,0,1-3.47-5.65l10.14-21.44.46,0a7.13,7.13,0,0,1,3.87,1.52l.13.1a6.68,6.68,0,0,0-1.09-.17,2.38,2.38,0,0,0-.46,0l-10.14,21.43a19.5,19.5,0,0,0,3.47,5.65q4,4.72,3.17,8.46a57.15,57.15,0,0,1-5,12.45q-1.34,2.43-5.91,9.86l-.79,1.3q-3.76,5.38-5.12,7a16.58,16.58,0,0,1-6.31,4.76,23.34,23.34,0,0,1-2.48-1.62,17.07,17.07,0,0,0,5.88-4.59q1.35-1.59,5.12-7c.31-.51.61-1,.91-1.47Q181.51,197.72,182.83,195.31Zm-25.3,18.24L144,230.69a12.54,12.54,0,0,0,2.32,6.08,43.49,43.49,0,0,0,5.45,5.78,8.06,8.06,0,0,0,.82.74,7.78,7.78,0,0,1-3.73-2.2,42.88,42.88,0,0,1-5.45-5.78,12.39,12.39,0,0,1-2.31-6.07l2.61-3.31,8.93-11.34,2-2.5a8.49,8.49,0,0,1,3.46,1.57Z"/><path class="cls-39" d="M261.18,189.87c1.9-1.25,2.93-1.92,3.09-2v0s.19.63.5,1.82a14.54,14.54,0,0,0,.69,2.31l.33.46c.82.66,1.31,1.07,1.49,1.22a.88.88,0,0,1,.28.5.19.19,0,0,1,0,.13q0,.11-.36.33a18.58,18.58,0,0,0-2.41,2c-.86.81-1.66,1.55-2.38,2.25a5.5,5.5,0,0,1-2.81-2.38,9,9,0,0,1-1-3.8c0-.35,0-.71,0-1.07Z"/><path class="cls-39" d="M290,190.1a.83.83,0,0,1,.19.46,1.82,1.82,0,0,1,0,.33v.05a.92.92,0,0,1,0,.28s0,0,0,.07a2.58,2.58,0,0,1-.3.69,5.53,5.53,0,0,1-.92,1.16,12.53,12.53,0,0,1-2.28,1.55,12.72,12.72,0,0,1-2.58,1.09,15.62,15.62,0,0,1-1.59.43,16.51,16.51,0,0,1-2.7.29l-1.49,0c-.9,0-1.81,0-2.71,0l-1.55,0a15.15,15.15,0,0,0-2.54.43v-.05l.88-2.29,2.64-.86a2.74,2.74,0,0,0,1.39.66,7.92,7.92,0,0,0,2.34.2l2.48-.13A11,11,0,0,0,284,194a9.77,9.77,0,0,0,2.28-.89,4.31,4.31,0,0,0,1.22-1c.22-.26.4-.46.53-.59a.8.8,0,0,0,.2-.4l.06-.11a8.48,8.48,0,0,1,.57-.88c.11-.15.21-.27.29-.36a1.35,1.35,0,0,1,.17-.17A2.46,2.46,0,0,1,290,190.1Z"/><path class="cls-26" d="M260.19,216.22a40,40,0,0,0-5.88.37l-5.62.89a30.06,30.06,0,0,1-6.27.53,36.45,36.45,0,0,1-4.06-.37,5.56,5.56,0,0,1-5-4,6,6,0,0,1,.81-5.65l.28-.36a5.29,5.29,0,0,0,.83,1.35,4.5,4.5,0,0,0,.66.65,4.42,4.42,0,0,0,1.32.71,16.18,16.18,0,0,0,6.67.92q3-.26,5.95-.26l1.37,0,4.74,0c1.57,0,3.14-.05,4.72-.16l1.26-.1a18.63,18.63,0,0,0,5.81-1.39,8.18,8.18,0,0,1,5.84-.33,13.56,13.56,0,0,1-1.12,5.45q-1.19,2.94-5.58,3.24a14.77,14.77,0,0,1-6.11-1.22Zm2.21-17.37.17.1c-1.59,1.43-2.57,2.35-2.94,2.77s-.64.63-.94.94c-3.14.69-6,1.26-8.61,1.69a34.51,34.51,0,0,1,2.68-2.43c.31-.22,1.21-1,2.71-2.31,1.21-1.06,2.23-1.89,3.07-2.51a9.72,9.72,0,0,1,1-.63A5.5,5.5,0,0,0,262.4,198.85Z"/><path class="cls-39" d="M272.94,194.26a4.33,4.33,0,0,1,2.51-1.46,1.8,1.8,0,0,0,0,.22,3.46,3.46,0,0,0-.05.71l-2.64.86A1.17,1.17,0,0,1,272.94,194.26Z"/><path class="cls-39" d="M287.53,189.55h0a7.27,7.27,0,0,1,1.9.56.89.89,0,0,0-.16.17,3.15,3.15,0,0,0-.3.36,7.78,7.78,0,0,0-.56.87l-.07.12a1.17,1.17,0,0,0-.2-.33v0a1.15,1.15,0,0,1-.14-.17,1.07,1.07,0,0,1-.14-.16l-.1-.17A2.73,2.73,0,0,1,287.53,189.55Z"/><path class="cls-10" d="M162.42,197.86a2.26,2.26,0,0,1-2.18.23,2.37,2.37,0,0,1-1.39-1.82,17.22,17.22,0,0,1-.39-2,20.94,20.94,0,0,1,1.85-11.64,20.59,20.59,0,0,1,9.18-10.24,2.49,2.49,0,0,1,2.25-.1A2.32,2.32,0,0,1,173,174a3.89,3.89,0,0,1-.29,2.64,3.77,3.77,0,0,1-1.69,1.92,13.92,13.92,0,0,0-6.57,14.76,4,4,0,0,1-.33,2.64,4.52,4.52,0,0,1-.76,1.18A3.63,3.63,0,0,1,162.42,197.86ZM151.29,178.6q5.22-11.72,15.39-17.14a2.34,2.34,0,0,1,3.64,1.62,3.89,3.89,0,0,1-.27,2.51,4,4,0,0,1-1.75,2,26.29,26.29,0,0,0-11.92,13.21,28.18,28.18,0,0,0-2.59,10.72,24.87,24.87,0,0,0,.74,7,3.93,3.93,0,0,1-.33,2.61,3.86,3.86,0,0,1-1.69,1.95,2.52,2.52,0,0,1-3.63-1.65,32.27,32.27,0,0,1-.54-13.06A39.18,39.18,0,0,1,151.29,178.6ZM142,174.44q7.43-16.65,22-24.47a2.49,2.49,0,0,1,2.22-.14,2.34,2.34,0,0,1,1.32,1.69,4.41,4.41,0,0,1-.3,2.64,4,4,0,0,1-1.75,2q-12.28,6.54-18.5,20.51a48.3,48.3,0,0,0-3.07,9.18,39.53,39.53,0,0,0,.23,18.23,4.5,4.5,0,0,1-1.86,4.48l-.15.08a2.28,2.28,0,0,1-3.57-1.59l-.18-.74a46.77,46.77,0,0,1,.55-23.33A58.73,58.73,0,0,1,142,174.44Z"/></g></g></svg>