
<svg width="45" height="45" viewBox="0 0 45 45" fill="none" xmlns="http://www.w3.org/2000/svg">
<path d="M11 18.4286L17.661 22.5809C19.2292 23.5584 20.0133 24.0472 20.8606 24.2371C21.6096 24.4049 22.3904 24.4049 23.1394 24.2371C23.9867 24.0472 24.7709 23.5584 26.339 22.5809L33 18.4286M14.9111 31H29.0889C30.4579 31 31.1425 31 31.6653 30.7509C32.1253 30.5318 32.4993 30.1821 32.7336 29.752C33 29.2631 33 28.623 33 27.3429V18.6571C33 17.377 33 16.737 32.7336 16.248C32.4993 15.8179 32.1253 15.4683 31.6653 15.2491C31.1425 15 30.4579 15 29.0889 15H14.9111C13.5421 15 12.8576 15 12.3347 15.2491C11.8747 15.4683 11.5008 15.8179 11.2664 16.248C11 16.737 11 17.377 11 18.6571V27.3429C11 28.623 11 29.2631 11.2664 29.752C11.5008 30.1821 11.8747 30.5318 12.3347 30.7509C12.8576 31 13.5421 31 14.9111 31Z" stroke="#B9987A" stroke-width="2" stroke-linecap="round" stroke-linejoin="round"/>
<circle cx="22.5" cy="22.5" r="21.5" stroke="#B9987A" stroke-width="2"/>
</svg>
