
<svg width="45" height="45" viewBox="0 0 45 45" fill="none" xmlns="http://www.w3.org/2000/svg">
<path d="M25.7216 26.6661L26.1888 26.1765L25.104 25.0266L24.637 25.5162L25.7216 26.6661ZM27.7575 25.9714L29.7168 27.0942L30.4515 25.6696L28.4922 24.5468L27.7575 25.9714ZM30.094 29.3257L28.6371 30.8527L29.7218 32.0027L31.1787 30.4757L30.094 29.3257ZM27.7494 31.3444C26.2624 31.4905 22.4153 31.3603 18.25 26.9945L17.1654 28.1445C21.7107 32.9086 26.0369 33.1412 27.8921 32.959L27.7494 31.3444ZM18.25 26.9945C14.2797 22.8331 13.622 19.333 13.5401 17.8146L12.0043 17.9066C12.1073 19.8177 12.9217 23.6966 17.1654 28.1445L18.25 26.9945ZM19.6605 20.3133L19.9547 20.005L18.87 18.8551L18.5759 19.1634L19.6605 20.3133ZM20.1888 16.0751L18.8956 14.2542L17.6641 15.226L18.9573 17.0469L20.1888 16.0751ZM14.5462 13.8578L12.9364 15.545L14.0211 16.6949L15.6308 15.0077L14.5462 13.8578ZM19.1182 19.7383C18.5759 19.1634 18.5751 19.1641 18.5744 19.1649C18.5742 19.1652 18.5734 19.166 18.5729 19.1665C18.5719 19.1676 18.5709 19.1687 18.5698 19.1698C18.5678 19.172 18.5656 19.1743 18.5634 19.1768C18.559 19.1816 18.5543 19.1869 18.5493 19.1925C18.5394 19.2038 18.5286 19.2168 18.5169 19.2314C18.4937 19.2607 18.4673 19.2967 18.4396 19.3398C18.3841 19.4261 18.3236 19.5403 18.2723 19.6839C18.1676 19.9769 18.1114 20.3632 18.1818 20.8415C18.3195 21.7769 18.9306 23.0126 20.4962 24.6534L21.5808 23.5035C20.1158 21.9679 19.7668 21.0335 19.702 20.5929C19.6711 20.3833 19.7031 20.2801 19.7119 20.2557C19.7172 20.2405 19.7198 20.239 19.7132 20.2493C19.71 20.2544 19.7045 20.2623 19.696 20.2729C19.6918 20.2783 19.6868 20.2843 19.6809 20.291C19.678 20.2944 19.6749 20.2979 19.6714 20.3016C19.6698 20.3035 19.668 20.3054 19.6662 20.3073C19.6652 20.3083 19.6643 20.3093 19.6634 20.3103C19.663 20.3108 19.6623 20.3115 19.662 20.3118C19.6612 20.3125 19.6605 20.3133 19.1182 19.7383ZM20.4962 24.6534C22.0622 26.2948 23.2399 26.9336 24.1287 27.0774C24.5829 27.1508 24.9492 27.0922 25.227 26.9831C25.3632 26.9296 25.4717 26.8666 25.5537 26.8086C25.5948 26.7796 25.629 26.7521 25.6568 26.7277C25.6708 26.7156 25.6831 26.7043 25.6938 26.6939C25.6993 26.6887 25.7043 26.6839 25.7089 26.6792C25.7113 26.6768 25.7134 26.6746 25.7156 26.6724C25.7166 26.6713 25.7176 26.6702 25.7187 26.6691C25.7192 26.6686 25.72 26.6679 25.7202 26.6676C25.7209 26.6669 25.7216 26.6661 25.1793 26.0911C24.637 25.5162 24.6377 25.5154 24.6384 25.5147C24.6386 25.5145 24.6393 25.5137 24.6399 25.5132C24.6408 25.5122 24.6417 25.5112 24.6426 25.5103C24.6446 25.5084 24.6463 25.5066 24.6481 25.5047C24.6517 25.5012 24.655 25.4979 24.6582 25.4948C24.6646 25.4887 24.6703 25.4834 24.6754 25.4791C24.6855 25.4703 24.693 25.4646 24.6976 25.4613C24.7071 25.4546 24.7052 25.4576 24.69 25.4635C24.6649 25.4734 24.5643 25.5072 24.362 25.4745C23.9382 25.406 23.0454 25.0385 21.5808 23.5035L20.4962 24.6534ZM18.8956 14.2542C17.8502 12.7822 15.7946 12.5493 14.5462 13.8578L15.6308 15.0077C16.1761 14.4362 17.1445 14.4944 17.6641 15.226L18.8956 14.2542ZM13.5401 17.8146C13.52 17.4404 13.6827 17.0495 14.0211 16.6949L12.9364 15.545C12.3854 16.1226 11.9521 16.9402 12.0043 17.9066L13.5401 17.8146ZM28.6371 30.8527C28.3553 31.1482 28.0532 31.3146 27.7494 31.3444L27.8921 32.959C28.6455 32.8849 29.2628 32.4837 29.7218 32.0027L28.6371 30.8527ZM19.9547 20.005C20.9643 18.9467 21.0394 17.2728 20.1888 16.0751L18.9573 17.0469C19.3711 17.6296 19.3096 18.3944 18.87 18.8551L19.9547 20.005ZM29.7168 27.0942C30.5555 27.5749 30.6862 28.705 30.094 29.3257L31.1787 30.4757C32.5532 29.0349 32.1294 26.631 30.4515 25.6696L29.7168 27.0942ZM26.1888 26.1765C26.5826 25.7638 27.2165 25.6615 27.7575 25.9714L28.4922 24.5468C27.3809 23.91 26.0017 24.0858 25.104 25.0266L26.1888 26.1765Z" fill="#B9987A"/>
<circle cx="22.5" cy="22.5" r="21.5" stroke="#B9987A" stroke-width="2"/>
</svg>
